<svg width="360" height="360" xmlns="http://www.w3.org/2000/svg">
 <rect x="0" y="0" width="100%" height="100%" fill="#f6f6f7" />
 <g>
  <path id="svg_1" d="m177.9402,359.543c-29.81801,-1.276 -50.55,-5.242 -67.09501,-12.83398c-2.415,-1.108 -2.053,-0.36603 -4.657,-9.53403c-4.53699,-15.96698 -7.985,-30.435 -11.679,-48.99899c-1.872,-9.41 -2.749,-13.345 -7.073,-31.73499c-7.76,-33.00002 -10.707,-48.173 -12.403,-63.854c-0.429,-3.972 0.344,-9.40201 1.559,-10.94701c0.719,-0.914 0.733,-3.248 0.021,-3.43401c-0.41499,-0.10799 -0.518,-0.45999 -0.67,-2.284c-0.126,-1.51399 -0.323,-2.33699 -0.66,-2.767c-0.327,-0.41499 -0.482,-1.02699 -0.482,-1.89999c0,-0.70801 -0.115,-1.36 -0.256,-1.446c-0.15401,-0.095 -0.256,-1.832 -0.256,-4.35001c0,-2.52 -0.102,-4.257 -0.256,-4.35201c-0.14,-0.08699 -0.256,0.07201 -0.256,0.354c0,3.155 -2.267,-2.591 -3.589,-9.095c-3.391,-16.69 -8.957,-33.277 -7.677,-22.87599c0.45,3.659 1.28,7.256 3.664,15.87799c2.8,10.12801 4.076,17.3 3.506,19.711c-0.814,3.44701 -6.07201,-17.25299 -9.10201,-35.83499c-0.77,-4.715 -1.924,-11.798 -2.567,-15.74001c-1.435,-8.806 -2.77,-15.42 -4.594,-22.75999c-1.826,-7.346 -1.774,-8.538 0.495,-11.427c4.677,-5.957 18.402,-10.587 19.885,-6.71c1.017,2.658 -1.98,4.5 -10.13,6.224c-7.064,1.494 -7.717,2.563 -3.883,6.35c3.834,3.786 26.071,7.17 52.382,7.971c46.59801,1.42 76.14,1.793 84.45599,1.068c2.041,-0.177 4.94301,-0.39 6.44901,-0.472c2.73801,-0.15 2.73801,-0.15 2.61301,-0.817c-0.09401,-0.506 0.12399,-0.98 0.89899,-1.948a88.173,88.173 0 0 0 1.867,-2.432c1.57901,-2.154 4.23,-2.97601 5.33,-1.65c1.37601,1.657 0.16,5.494 -2.112,6.67c-1.05,0.542 -0.74899,0.709 1.674,0.927c1.15001,0.104 2.75,0.259 3.55701,0.344c2.439,0.257 4.298,-0.624 3.274,-1.551c-2.25801,-2.043 1.98999,-6.164 8.56799,-8.313c0.98601,-0.321 1.901,-0.686 2.035,-0.81c0.134,-0.122 0.425,-0.223 0.64799,-0.223c0.84,0 3.24001,-1.861 5.91,-4.58c1.52,-1.548 3.226,-3.10699 3.79201,-3.465c0.56599,-0.357 1.15399,-0.881 1.30499,-1.165c0.46001,-0.86 -0.436,-0.628 -2.429,0.628c-0.985,0.62 -2.367,1.48 -3.071,1.91c-1.461,0.894 -4.713,3.05 -7.84,5.2c-1.17801,0.809 -2.43001,1.666 -2.78101,1.904c-0.35201,0.239 -0.849,0.61 -1.105,0.823c-0.565,0.47501 -3.192,0.589 -4.65401,0.202c-3.795,-1.004 -4.06799,-4.336 -0.82799,-10.122c1.418,-2.533 5.32599,-7.715 5.81898,-7.715c0.12201,0 0.54701,-0.48 0.94301,-1.068c0.717,-1.064 1.172,-1.408 3.455,-2.612c1.642,-0.867 2.60199,-0.96 2.86299,-0.281c0.155,0.403 -0.99599,2.936 -2.293,5.045c-2.718,4.421 -2.955,4.87 -2.7,5.125c0.362,0.362 3.129,-1.298 3.539,-2.124c0.172,-0.346 0.632,-1.318 1.022,-2.158c2.64,-5.689 8.957,-6.249 12.843,-1.14c1.02699,1.35101 1.31299,1.50401 1.31799,0.706c0.01801,-2.498 3.496,-4.547 7.73801,-4.56c1.75902,-0.005 1.87401,-0.293 0.351,-0.874c-2.08101,-0.795 -2.2,-1.193 -0.828,-2.761c1.90201,-2.175 1,-2.598 -2.61501,-1.225c-3.487,1.325 -6.87599,2.043 -9.194,1.946c-1.23,-0.051 -2.51399,0.01 -2.85199,0.137c-0.338,0.127 -1.241,0.284 -2.006,0.349c-0.76601,0.065 -1.485,0.176 -1.59901,0.246c-0.114,0.07 -0.76599,0.052 -1.44899,-0.041c-3.798,-0.519 -3.446,-3.812 1.31099,-12.24a74.754,74.754 0 0 0 1.94901,-3.712c0.436,-0.915 2.21001,-4.543 3.94,-8.062c1.73199,-3.519 3.62399,-7.434 4.205,-8.701c0.58099,-1.267 1.342,-2.85 1.69099,-3.52c0.349,-0.668 0.634,-1.33 0.634,-1.472c0,-0.142 0.295,-0.861 0.655,-1.6c2.327,-4.765 6.037,-16.53 5.58501,-17.707c-0.091,-0.24 -0.015,-0.398 0.19299,-0.398c0.19,0 0.92101,-0.384 1.62601,-0.854a84.694,84.694 0 0 1 1.98001,-1.28c0.57098,-0.352 0.66998,-0.559 0.552,-1.153c-0.66,-3.301 5.435,-1.191 13.01999,4.507c11.155,8.38 21.05899,22.543 29.33401,41.95c7.35397,17.248 9.28497,46.5 4.51599,68.415c-3.34302,15.364 -5.61902,38.94301 -8.064,83.56c-1.55701,28.407 -2.44702,41.226 -3.73102,53.746a476.41,476.41 0 0 0 -1.00699,11.26001c-1.043,14.13498 -2.61301,27.258 -5.284,44.14798c-0.91299,5.77402 -1.04102,7.13101 -1.11099,11.77301c-0.263,17.50101 -6.67801,27.44 -18.84402,29.19199c-1.17999,0.17001 -3.642,0.74902 -5.47198,1.28601c-14.83301,4.35501 -30.65701,6.664 -52.33701,7.638c-17.58301,0.79001 -22.668,0.86902 -31.48,0.492zm-60.4,-26.47c-3.158,-12.875 -5.005,-18.98599 -7.22501,-23.91c-2.378,-5.272 -2.918,-5.97 -2.624,-3.392c1.35001,11.85001 4.60201,22.841 9.897,33.439c2.792,5.58801 2.78999,5.43802 -0.048,-6.138l0,0.00101zm-5.535,8.52802c0.922,-3.43802 -0.552,-10.67001 -4.843,-23.77002c-2.448,-7.47 -4.251,-13.96799 -4.591,-16.53799c-0.22301,-1.685 -0.454,-1.827 -1.412,-0.86899c-1.537,1.53699 -1.072,4.716 2.389,16.349c0.93,3.13 1.825,6.69998 1.986,7.93298c0.947,7.25 5.718,19.70599 6.471,16.89502zm86.77999,-38.11401c4.67,-3.09299 4.05701,-12.108 -1.01799,-14.983c-4.57001,-2.58801 -7.02301,3.05099 -5.08301,11.681c0.87,3.871 3.276,5.17401 6.101,3.302zm-13.765,-0.681c3.48201,-1.78601 4.63901,-7.74399 2.457,-12.65701c-2.15199,-4.84399 -6.467,-2.38998 -7.245,4.12003c-0.112,0.94199 -0.37801,2.819 -0.59,4.16998c-0.76001,4.845 1.25499,6.48001 5.37799,4.367zm-84.739,-8.90799c0.55901,-4.46802 -0.59999,-10.92401 -4.34499,-24.23001c-1.063,-3.77301 -2.288,-8.668 -2.723,-10.87601c-1.42101,-7.21999 -3.57401,-10.73799 -2.534,-4.14299c0.504,3.20201 3.353,17.81001 3.967,20.347c0.341,1.40701 0.917,4.95801 1.28,7.88998c0.904,7.302 1.69701,10.19501 3.256,11.88c0.773,0.836 0.899,0.73602 1.10001,-0.86798l-0.00101,0zm59.23201,-24.69501c19.495,-4.46701 25.78099,-28.84601 10.394,-40.31c-9.922,-7.392 -16.13501,-7.929 -31.636,-2.735c-3.16701,1.06099 -6.01801,2.093 -6.336,2.293c-1.13,0.711 -2.877,3.231 -2.877,4.14999c0,0.47101 -0.452,1.979 -1.005,3.35001c-7.32199,18.161 11.32001,37.86699 31.46001,33.252zm-24.69701,-13.952c-7.66901,-1.145 -9.32201,-7.675 -3.452,-13.63701c4.265,-4.33 9.23,-4.705 12.875,-0.972c7.213,7.388 1.50299,16.241 -9.423,14.61l0,-0.00099zm97.23599,10.36301c13.39101,-2.25 21.78801,-17.64502 16.26601,-29.82301c-12.93001,-28.517 -59.368,-14.81799 -49.18401,14.509c4.354,12.53801 16.315,18.10301 32.918,15.31401zm-26.08699,-11.83501c-5.97,-1.47 -7.90601,-6.925 -4.707,-13.261c3.99899,-7.92201 12.55499,-7.82901 16.776,0.183c2.54999,4.84 1.972,6.452 -2.16301,6.03499c-3.718,-0.375 -4.93799,0.15601 -3.12,1.36c1.32401,0.87601 3.01801,2.40201 3.345,3.01201c1.021,1.908 -5.86101,3.722 -10.131,2.67l0,0.00101zm-62.929,-105.81001c1.00101,-0.14499 1.711,-0.48999 3.00999,-1.45999c0.936,-0.698 2.42,-1.797 3.29701,-2.44c7.916,-5.81 10.463,-7.847 13.37,-10.69c0.985,-0.964 3.864,-3.562 6.39799,-5.772c2.533,-2.21 5.08,-4.445 5.657,-4.966c0.578,-0.52 1.61501,-1.446 2.304,-2.055c2.16101,-1.914 5.98801,-5.41199 8.93001,-8.164c3.45299,-3.23 10.918,-10.78 10.866,-10.99c-0.12401,-0.502 -2.326,-0.922 -4.98001,-0.95c-2.75499,-0.03 -2.814,-0.042 -2.79399,-0.612c0.028,-0.772 0.06,-0.76801 -7.44301,-0.94c-60.01999,-1.387 -100.23799,-3.456 -121.97399,-6.278c-2.532,-0.328 -2.791,-0.32 -2.791,0.086c0,0.712 2.072,2.68 3.71,3.525c2.061,1.062 2.092,1.527 0.126,1.886c-2.108,0.384 -2.045,0.13499 -1.217,4.766c3.32,18.58 8.201,22.785 18.505,15.946c5.927,-3.934 43.901,-8.008 68.963,-7.4c4.302,0.105 7.26801,0.06001 8.701,-0.13c1.19701,-0.16 2.832,-0.35 3.634,-0.424c0.80299,-0.074 1.59399,-0.297 1.75999,-0.49599c0.164,-0.19901 0.739,-0.362 1.27501,-0.362c0.53699,0 1.29999,-0.133 1.696,-0.29601c2.713,-1.114 23.37,-1.542 23.37,-0.484c0,0.186 -1.06201,1.2 -3.528,3.36401c-0.576,0.506 -3.56,2.808 -6.63,5.116c-4.65399,3.5 -7.76399,5.916 -9.164,7.121c-0.14,0.12099 -1.67999,1.736 -3.42,3.58799c-7.159,7.61801 -14.634,12.86101 -21.058,14.76901c-0.89799,0.267 -1.26199,0.52899 -1.468,1.056c-0.34599,0.888 -1.46199,2.87399 -1.812,3.224c-0.58299,0.58299 -0.298,0.996 0.56599,0.821a49.209,49.209 0 0 1 2.14101,-0.358l0,-0.00101zm12.255,-2.345c0.09599,-0.15599 2.036,-0.256 4.965,-0.256c5.673,0 10.26199,-0.24699 10.26199,-0.55099c0,-0.12 -0.164,-0.217 -0.36499,-0.217c-1.09001,0 -1.43001,-1.27301 -0.74301,-2.77701c0.854,-1.866 1.65001,-2.763 10.36801,-11.683c3.43999,-3.52 6.71899,-6.974 7.28799,-7.678c4.922,-6.089 8.892,-11.883 8.446,-12.32999c-0.192,-0.192 -3.97,3.34399 -4.548,4.257c-0.226,0.358 -1.31999,1.55 -2.42999,2.648c-2.17801,2.154 -2.30501,2.29401 -6.386,7.089c-1.498,1.759 -3.05,3.54401 -3.44901,3.966c-0.399,0.423 -1.29399,1.40199 -1.98999,2.17599c-2.287,2.547 -6.48801,6.61501 -8.366,8.10201c-4.22,3.34 -10.737,6.632 -12.79701,6.464c-0.69499,-0.05701 -2.17499,0.299 -2.17499,0.52299c0,0.53999 1.612,0.76401 1.92,0.267l0,-0.00002zm58.70299,-1.008c0.326,-0.48999 0.60001,-0.528 3.838,-0.532c4.75301,-0.005 7.29701,-0.994 5.53201,-2.14999c-0.36,-0.23601 -0.63701,-0.664 -0.63901,-0.987c-0.008,-1.983 -1.474,-3.62001 -2.284,-2.55301c-2.358,3.104 -2.798,3.563 -3.987,4.158c-7.71701,3.87 -12.3,-5.026 -8.442,-16.385c3.328,-9.796 3.59399,-10.682 4.38,-14.582c0.38199,-1.889 0.02899,-5.603 -0.541,-5.7c-1.20201,-0.202 -6.755,17.378 -9.07501,28.734c-1,4.89 -1.01999,4.94 -2.368,5.79399c-4.735,2.99901 -6.634,1.61301 -5.138,-3.74699c0.468,-1.67799 1.968,-5.83301 2.655,-7.355c0.27,-0.597 0.49001,-1.15001 0.49001,-1.23001c0,-0.07999 0.23599,-0.68499 0.52499,-1.34599c3.369,-7.697 4.16101,-10.502 3.058,-10.82c-3.18199,-0.917 -7.55499,1.527 -9.46399,5.29c-0.20801,0.41 -0.638,1.171 -0.955,1.692c-0.722,1.186 -1.98,3.517 -4.11501,7.627c-2.91,5.59999 -3.55099,6.66899 -5.513,9.17999c-2.07999,2.662 -4.243,3.96501 -7.722,4.649c-2.487,0.489 -2.446,0.61501 0.25601,0.79001c7.01799,0.455 39.14099,0.02699 39.50899,-0.52701zm-28.83499,-1.308c-1.09601,-0.44 -1.658,-2.728 -1.04701,-4.263c1.207,-3.03 2.828,-5.55299 8.44,-13.128c1.198,-1.619 2.616,-3.605 3.15001,-4.415c2.847,-4.316 3.27299,3.312 0.53999,9.662c-2.92,6.783 -7.716,12.575 -10.265,12.396c-0.127,-0.009 -0.495,-0.12199 -0.81799,-0.252zm67.97,-1.032c1.42599,-0.158 2.65799,-0.43001 2.89,-0.64c0.27899,-0.25 1.04599,-0.36301 2.48001,-0.36301c1.142,0 2.147,-0.11499 2.23398,-0.256c0.08701,-0.14 0.36902,-0.256 0.625,-0.256c0.42801,0 0.92801,-0.964 0.64603,-1.246c-0.06403,-0.064 -0.72101,0.02 -1.46103,0.18401c-1.30798,0.29199 -2.431,0.465 -4.79999,0.73999c-3.144,0.36501 -11.908,0.12001 -14.32001,-0.39999c-0.84799,-0.18201 -0.897,-0.256 -1.16699,-1.752c-0.48801,-2.698 -1.918,-3.966 -3.75,-3.32401c-1.81,0.63501 -1.912,0.968 -0.47301,1.54401c1.045,0.418 2.05,1.245 2.05,1.68599c0,0.468 -1.59,2.056 -2.058,2.056c-0.259,0 -0.535,0.104 -0.61301,0.23001c-0.17299,0.28099 -3.18199,1.21399 -4.68599,1.45399c-2.828,0.45 -0.25801,0.62 9.41499,0.62c5.806,0 11.61501,-0.12399 12.989,-0.27699l-0.00099,0zm16.63301,-13.91701c1.379,-0.23399 2.87198,-1.55699 2.87198,-2.54399c0,-0.73901 -0.582,-1.12901 -1.09,-0.731c-0.31699,0.247 -2.28,0.764 -3.005,0.791c-0.211,0.008 -0.87,0.093 -1.46298,0.189c-3.92599,0.634 -14.84601,-2.828 -19.95302,-6.325c-0.588,-0.402 -1.13699,-0.73199 -1.21799,-0.73199c-0.23901,0 -2.76601,-1.79601 -3.535,-2.511c-2.647,-2.466 2.302,-2.704 8.76599,-0.423c4.08701,1.443 4.62401,1.651 5.722,2.218c1.69302,0.875 1.89001,0.96 3.69601,1.599c4.15799,1.47 4.50299,1.119 1.203,-1.225c-4.91501,-3.492 -10.14301,-5.655 -12.10402,-5.008c-2.12599,0.702 -6.98099,-0.56499 -11.56999,-3.017c-8.216,-4.393 -11.32401,-5.19 -8.522,-2.184c3.756,4.027 8.627,8.52001 11.69701,10.79c1.90999,1.41 4.51399,3.18999 5.015,3.42599c0.211,0.10001 0.90199,0.482 1.536,0.85001c1.476,0.85799 6.364,3.05299 7.614,3.42c2.44302,0.718 3.66302,1.006 4.94702,1.17c0.763,0.09599 1.52798,0.25 1.69998,0.34c0.41202,0.21701 6.28702,0.14601 7.69202,-0.093zm-30.14302,-37.67699c0.634,-0.054 1.67,-0.15 2.304,-0.214c1.23,-0.125 5.03,-0.89301 7.55,-1.527c0.84399,-0.21301 4.472,-0.788 8.06102,-1.279c13.26999,-1.814 17.19699,-3.29401 20.49399,-7.722c1.44501,-1.939 1.45001,-2.188 0.11801,-4.771c-2.668,-5.17 0.13199,-6.764 6.38898,-3.635c2.19302,1.097 2.17502,1.097 2.17502,0.013c0,-0.98299 -0.19501,-1.168 -1.51602,-1.43999c-7.19098,-1.475 -10.513,-6.912 -6.737,-11.026c0.67801,-0.74 0.62201,-1.552 -0.34399,-5.016c-0.42499,-1.526 -0.672,-1.613 -1.91,-0.679c-0.48499,0.366 -1.37997,0.884 -1.98999,1.152c-1.108,0.486 -1.108,0.486 0.02499,1.62c3.61401,3.613 -0.95599,8.086 -8.76999,8.584c-5.11899,0.326 -5.561,0.484 -3.246,1.15701c3.91299,1.138 4.49799,3.573 1.23999,5.157c-3.03598,1.476 -2.89999,1.588 0.87302,0.728c6.052,-1.38 10.70599,-1.18 11.29199,0.48801c1.61499,4.59399 -1.53,9.3 -7.85599,11.759c-1.513,0.58801 -2.41901,0.864 -5.50201,1.673c-1.56,0.409 -6.05899,1.097 -6.207,0.949c-0.07201,-0.072 -0.32201,-0.029 -0.556,0.097c-0.23401,0.125 -1.34201,0.303 -2.46201,0.396c-6.55299,0.542 -10.00999,0.99799 -17.321,2.28799c-4.048,0.71301 -4.55,0.844 -4.55,1.184c0,0.248 5.02301,0.47 6.399,0.284a49.99,49.99 0 0 1 2.047,-0.22zm21.84203,-36.375a1141.95996,1141.95996 0 0 1 4.77698,-3.175c5.117,-3.385 8.60001,-7.032 9.32602,-9.764c0.19199,-0.723 0.42499,-1.503 0.517,-1.732c0.28098,-0.701 -0.66,-3.238 -0.99701,-2.684c-1.54599,2.55 -2.70999,4.008 -5.00299,6.274c-3.806,3.76 -5.19302,5.062 -5.655,5.311c-0.76102,0.411 -4.88602,5.081 -5.24902,5.943c-0.715,1.699 -0.483,1.681 2.28403,-0.173zm-182.56502,18.925c0,-0.26 0.385,-0.98 0.857,-1.6c1.184,-1.552 1.702,-2.62601 1.702,-3.527c0,-1 -0.341,-0.872 5.788,-2.18201c13.714,-2.93 19.588,-3.68299 30.08701,-3.858c55.37599,-0.92 71.62999,-1.427 89.23099,-2.79c4.479,-0.346 4.47,-0.348 5.7,1.591c2.65901,4.192 -4.868,6.947 -16.534,6.053c-1.12599,-0.087 -6.481,-0.19 -11.89999,-0.231c-9.854,-0.07401 -9.854,-0.07401 -15.20399,-1.152c-7.81001,-1.573 -10.09801,-1.482 -12.347,0.493c-1.05501,0.926 -0.71701,0.922 -3.24501,0.031c-6.39099,-2.252 -14.29799,-2.39 -27.04399,-0.471c-4.294,0.646 -9.303,1.302 -11.133,1.457c-9.508,0.806 -18.424,2.453 -29.862,5.51801c-4.755,1.27399 -6.096,1.421 -6.096,0.668z" fill="#F3D71D"/>
  <path id="svg_2" d="m177.9402,359.543c-29.81801,-1.276 -50.55,-5.242 -67.09501,-12.83398c-2.415,-1.108 -2.053,-0.36603 -4.657,-9.53403c-4.53699,-15.96698 -7.985,-30.435 -11.679,-48.99899c-1.872,-9.41 -2.749,-13.345 -7.073,-31.73499c-7.76,-33.00002 -10.707,-48.173 -12.403,-63.854c-0.429,-3.972 0.344,-9.40201 1.559,-10.94701c0.719,-0.914 0.733,-3.248 0.021,-3.43401c-0.41499,-0.10799 -0.518,-0.45999 -0.67,-2.284c-0.126,-1.51399 -0.323,-2.33699 -0.66,-2.767c-0.327,-0.41499 -0.482,-1.02699 -0.482,-1.89999c0,-0.70801 -0.115,-1.36 -0.256,-1.446c-0.15401,-0.095 -0.256,-1.832 -0.256,-4.35001c0,-2.52 -0.102,-4.257 -0.256,-4.35201c-0.14,-0.08699 -0.256,0.07201 -0.256,0.354c0,3.155 -2.267,-2.591 -3.589,-9.095c-3.391,-16.69 -8.957,-33.277 -7.677,-22.87599c0.45,3.659 1.28,7.256 3.664,15.87799c2.8,10.12801 4.076,17.3 3.506,19.711c-0.814,3.44701 -6.07201,-17.25299 -9.10201,-35.83499c-0.77,-4.715 -1.924,-11.798 -2.567,-15.74001c-1.435,-8.806 -2.77,-15.42 -4.594,-22.75999c-1.826,-7.346 -1.774,-8.538 0.495,-11.427c4.677,-5.957 18.402,-10.587 19.885,-6.71c1.017,2.658 -1.98,4.5 -10.13,6.224c-7.064,1.494 -7.717,2.563 -3.883,6.35c3.834,3.786 26.071,7.17 52.382,7.971c46.59801,1.42 76.14,1.793 84.45599,1.068c2.041,-0.177 4.94301,-0.39 6.44901,-0.472c2.73801,-0.15 2.73801,-0.15 2.61301,-0.817c-0.09401,-0.506 0.12399,-0.98 0.89899,-1.948a88.173,88.173 0 0 0 1.867,-2.432c1.677,-2.288 4.364,-3.00401 5.451,-1.452c0.72,1.028 0.38699,1.322 -0.40601,0.359c-1.25999,-1.528 -3.168,-0.916 -4.972,1.595a57.216,57.216 0 0 1 -1.59999,2.1c-1.78101,2.206 -0.16301,3.77 2.968,2.868c2.213,-0.638 4.13399,-2.902 4.13399,-4.873c0,-0.468 0.08501,-0.61401 0.257,-0.442c0.73,0.729 -1.062,4.061 -2.614,4.864c-1.05,0.543 -0.74899,0.71 1.674,0.928c1.15001,0.104 2.75,0.259 3.55701,0.344c2.439,0.257 4.298,-0.624 3.274,-1.551c-2.25801,-2.043 1.98999,-6.164 8.56799,-8.313c0.98601,-0.321 1.901,-0.686 2.035,-0.81c0.134,-0.122 0.425,-0.223 0.64799,-0.223c0.839,0 3.24001,-1.86 5.90201,-4.572c2.718,-2.769 3.97,-3.818 4.23599,-3.55c0.076,0.075 -0.302,0.46 -0.84,0.856c-3.97099,2.93 -4.136,4.057 -0.302,2.064c5.573,-2.896 7.897,-3.491 6.092,-1.56c-2.31799,2.48 -9.97499,6.137 -10.90399,5.208c-0.19501,-0.195 -0.68001,-0.014 -1.675,0.622c-0.771,0.493 -2.54199,1.296 -3.936,1.785c-4.784,1.677 -6.03,2.37601 -8.79999,4.941c-8.86501,8.207 38.748,4.792 64.907,-4.656c4.388,-1.585 5.22601,-2.53 4.87399,-5.5c-0.604,-5.105 -10.59299,-11.468 -13.34399,-8.501c-0.655,0.707 -0.92398,0.51 -0.32999,-0.24c1.022,-1.29401 3.78799,-1.029 7.22998,0.69199c2.194,1.09801 2.17502,1.09801 2.17502,0.007c0,-0.952 -0.49402,-1.4 -1.58301,-1.435c-0.57401,-0.019 -2.85901,-0.94801 -2.423,-0.986c0.11902,-0.01 0.854,0.166 1.63202,0.392c5.534,1.609 7.58899,-1.168 4.93198,-6.663c-0.27698,-0.573 -1.073,-3.288 -1.76898,-6.033c-3.64902,-14.401 -11.05701,-29.943 -14.27402,-29.943c-0.75998,0 -0.745,0.036 -2.013,-4.863c-2.177,-8.41 -3.78299,-11.504 -6.88699,-13.27c-6.745,-3.838 -8.39601,-10.813 -1.92801,-8.148c13.88,5.72 28.03,23.22 38.35703,47.441c7.35397,17.248 9.28497,46.5 4.51599,68.415c-3.34302,15.364 -5.61902,38.94301 -8.064,83.56c-1.55701,28.407 -2.44702,41.226 -3.73102,53.746a476.41,476.41 0 0 0 -1.00699,11.26001c-1.043,14.13498 -2.61301,27.258 -5.284,44.14798c-0.91299,5.77402 -1.04102,7.13101 -1.11099,11.77301c-0.263,17.50101 -6.67801,27.44 -18.84402,29.19199c-1.17999,0.17001 -3.642,0.74899 -5.47198,1.28601c-14.83301,4.35498 -30.65701,6.664 -52.33701,7.638c-17.58301,0.79001 -22.668,0.86899 -31.48,0.492zm-60.4,-26.47c-3.158,-12.875 -5.005,-18.98599 -7.22501,-23.91c-2.378,-5.272 -2.918,-5.97 -2.624,-3.392c1.35001,11.85001 4.60201,22.841 9.897,33.439c2.792,5.58801 2.78999,5.43802 -0.048,-6.138l0,0.00101zm-5.535,8.52802c0.922,-3.43802 -0.552,-10.67001 -4.843,-23.77002c-2.448,-7.47 -4.251,-13.96799 -4.591,-16.53799c-0.22301,-1.685 -0.454,-1.827 -1.412,-0.86899c-1.537,1.53699 -1.072,4.716 2.389,16.349c0.93,3.13 1.825,6.69998 1.986,7.93298c0.947,7.25 5.718,19.70599 6.471,16.89502zm86.77999,-38.11401c4.67,-3.09299 4.05701,-12.108 -1.01799,-14.983c-4.57001,-2.58801 -7.02301,3.05099 -5.08301,11.681c0.87,3.871 3.276,5.17401 6.101,3.302zm-13.765,-0.681c3.48201,-1.78601 4.63901,-7.74399 2.457,-12.65701c-2.15199,-4.84399 -6.467,-2.38998 -7.245,4.12003c-0.112,0.94199 -0.37801,2.819 -0.59,4.16998c-0.76001,4.845 1.25499,6.48001 5.37799,4.367zm-84.739,-8.90799c0.55901,-4.46802 -0.59999,-10.92401 -4.34499,-24.23001c-1.063,-3.77301 -2.288,-8.668 -2.723,-10.87601c-1.42101,-7.21999 -3.57401,-10.73799 -2.534,-4.14299c0.504,3.20201 3.353,17.81001 3.967,20.347c0.341,1.40701 0.917,4.95801 1.28,7.88998c0.904,7.302 1.69701,10.19501 3.256,11.88c0.773,0.836 0.899,0.73602 1.10001,-0.86798l-0.00101,0zm59.23201,-24.69501c19.495,-4.46701 25.78099,-28.84601 10.394,-40.31c-9.922,-7.392 -16.13501,-7.929 -31.636,-2.735c-3.16701,1.06099 -6.01801,2.093 -6.336,2.293c-1.13,0.711 -2.877,3.231 -2.877,4.14999c0,0.47101 -0.452,1.979 -1.005,3.35001c-7.32199,18.161 11.32001,37.86699 31.46001,33.252zm-24.69701,-13.952c-7.66901,-1.145 -9.32201,-7.675 -3.452,-13.63701c4.265,-4.33 9.23,-4.705 12.875,-0.972c7.213,7.388 1.50299,16.241 -9.423,14.61l0,-0.00099zm97.23599,10.36301c13.39101,-2.25 21.78801,-17.64502 16.26601,-29.82301c-12.93001,-28.517 -59.368,-14.81799 -49.18401,14.509c4.354,12.53801 16.315,18.10301 32.918,15.31401zm-26.08699,-11.83501c-5.97,-1.47 -7.90601,-6.925 -4.707,-13.261c3.99899,-7.92201 12.55499,-7.82901 16.776,0.183c2.54999,4.84 1.972,6.452 -2.16301,6.03499c-3.718,-0.375 -4.93799,0.15601 -3.12,1.36c1.32401,0.87601 3.01801,2.40201 3.345,3.01201c1.021,1.908 -5.86101,3.722 -10.131,2.67l0,0.00101zm-62.925,-105.81001c1.008,-0.146 1.70601,-0.485 3.00101,-1.45999c0.929,-0.698 2.353,-1.754 3.16499,-2.34601c4.468,-3.256 8.311,-6.17999 9.668,-7.355c1.76001,-1.524 2.175,-1.80499 2.175,-1.468c0,0.132 -0.662,0.778 -1.472,1.436c-0.80901,0.658 -1.67101,1.36 -1.916,1.562c-0.681,0.56 -5.47701,4.131 -8.228,6.12801c-2.95,2.14 -2.98401,2.259 -0.605,2.09c3.36699,-0.24001 4.06799,-0.412 3.89499,-0.96001c-0.17599,-0.55299 0.87001,-1.09299 1.783,-0.91899c0.41499,0.08 0.347,0.145 -0.313,0.302c-0.463,0.11 -0.8,0.33 -0.748,0.487c0.127,0.388 1.45801,0.51999 1.8,0.17799c0.17799,-0.17799 1.97701,-0.276 5.048,-0.276c5.64,0 10.22499,-0.24699 10.22499,-0.55099c0,-0.12 -0.164,-0.217 -0.36499,-0.217c-0.41,0 -1.17,-0.677 -1.17,-1.04201c0,-0.13 0.23,-0.007 0.51199,0.274c0.36301,0.364 0.853,0.51199 1.69,0.51199c0.903,0 1.14799,0.08301 1.043,0.35701c-0.375,0.976 41.10399,0.883 41.76599,-0.09401c0.323,-0.478 0.623,-0.51999 3.838,-0.52299c4.75301,-0.005 7.29701,-0.994 5.53201,-2.14999c-0.36,-0.23601 -0.63701,-0.664 -0.63901,-0.987c0,-0.31401 -0.284,-1.175 -0.62801,-1.914c-0.34399,-0.739 -0.52199,-1.343 -0.396,-1.343c0.32901,0 0.52301,0.38 1.161,2.274c0.55,1.63499 0.60001,1.69099 1.688,1.97c1.09,0.28 1.10001,0.29199 0.353,0.41499c-0.422,0.07001 0.26901,0.129 1.53601,0.131c1.61699,0.004 2.036,-0.05099 1.407,-0.18399c-0.492,-0.10301 -0.817,-0.203 -0.722,-0.222c0.09599,-0.01801 1.06999,-0.158 2.16499,-0.31c3.457,-0.481 5.931,-1.39401 6.02701,-2.22501c0.07199,-0.63 0.17999,-0.698 1.09999,-0.698c1.78601,0 1.343,-1.71701 -0.534,-2.069c-0.93199,-0.175 -1.52,-0.698 -1.25999,-1.12001c0.254,-0.40999 1.666,-1.07999 2.007,-0.95c0.17299,0.06401 0.08299,0.18901 -0.209,0.29001c-1.60701,0.55299 -1.72,0.98199 -0.39801,1.50999c1.054,0.422 2.062,1.248 2.062,1.69c0,0.47 -1.59,2.05699 -2.06,2.05699c-0.258,0 -0.534,0.104 -0.612,0.23001c-0.17299,0.28099 -3.18199,1.21399 -4.68599,1.45399c-2.828,0.45 -0.25801,0.62 9.41499,0.62c10.692,0 15.146,-0.25699 15.87801,-0.916c0.27899,-0.252 1.04599,-0.364 2.48001,-0.364c1.142,0 2.147,-0.11499 2.23398,-0.256c0.08701,-0.14 0.36902,-0.256 0.625,-0.256c0.42801,0 0.92801,-0.964 0.64603,-1.246c-0.06403,-0.064 -0.72101,0.00999 -1.46103,0.166c-2.69299,0.564 -3.00897,0.605 -3.00897,0.388c0,-0.121 0.82199,-0.373 1.827,-0.55901c8.93298,-1.65199 15.78598,-6.653 18.65799,-13.618c0.39801,-0.966 1.556,-3.285 2.573,-5.153c6.21701,-11.421 9.84799,-21.29 8.92001,-24.246a14.078,14.078 0 0 1 -0.354,-1.563c-0.28702,-1.74 -0.42999,-1.798 -3.47202,-1.394c-13.59799,1.81 -40.02299,4.514 -56.17599,5.75c-11.34401,0.869 -26.77701,1.8 -29.88701,1.80399c-1.224,0.00201 -1.224,0.00201 -5.75,4.34c-5.66299,5.43 -6.138,5.453 -0.728,0.036c2.226,-2.229 3.948,-4.11 3.826,-4.18201c-0.825,-0.48299 -3.894,-0.963 -5.76201,-0.90199c-2.07599,0.06799 -2.13499,0.05399 -2.11499,-0.512c0.028,-0.772 0.06,-0.76801 -7.44301,-0.94c-60.01999,-1.387 -100.23799,-3.456 -121.97399,-6.278c-2.532,-0.328 -2.791,-0.32 -2.791,0.086c0,0.712 2.072,2.68 3.71,3.525c2.061,1.062 2.092,1.527 0.126,1.886c-2.108,0.384 -2.045,0.13499 -1.217,4.766c3.32,18.58 8.201,22.785 18.505,15.946c5.927,-3.934 43.901,-8.008 68.963,-7.4c4.302,0.105 7.26801,0.06001 8.701,-0.13c1.19701,-0.16 2.832,-0.35 3.634,-0.424c0.80299,-0.074 1.59399,-0.297 1.75999,-0.49599c0.164,-0.19901 0.739,-0.362 1.27501,-0.362c0.53699,0 1.29999,-0.133 1.696,-0.29601c2.713,-1.114 23.37,-1.542 23.37,-0.484c0,0.186 -1.06201,1.2 -3.528,3.36401c-0.576,0.506 -3.56,2.808 -6.63,5.116c-4.65399,3.5 -7.76399,5.916 -9.164,7.121c-0.14,0.12099 -1.67999,1.736 -3.42,3.58799c-7.159,7.61801 -14.634,12.86101 -21.058,14.76901c-0.89799,0.267 -1.26199,0.52899 -1.468,1.056c-0.34599,0.888 -1.46199,2.87399 -1.812,3.224c-0.58299,0.58299 -0.298,0.996 0.56599,0.821a49.236,49.236 0 0 1 2.145,-0.35901zm-64.144,-74.73699c0,-0.26 0.385,-0.98 0.857,-1.6c1.184,-1.552 1.702,-2.62601 1.702,-3.527c0,-1 -0.341,-0.872 5.788,-2.18201c13.714,-2.93 19.588,-3.68299 30.08701,-3.858c55.37599,-0.92 71.62999,-1.427 89.23099,-2.79c4.479,-0.346 4.47,-0.348 5.7,1.591c2.65901,4.192 -4.868,6.947 -16.534,6.053c-1.12599,-0.087 -6.481,-0.19 -11.89999,-0.231c-9.854,-0.07401 -9.854,-0.07401 -15.20399,-1.152c-7.81001,-1.573 -10.09801,-1.482 -12.347,0.493c-1.05501,0.926 -0.71701,0.922 -3.24501,0.031c-6.39099,-2.252 -14.29799,-2.39 -27.04399,-0.471c-4.294,0.646 -9.303,1.302 -11.133,1.457c-9.508,0.806 -18.424,2.453 -29.862,5.51801c-4.755,1.27399 -6.096,1.421 -6.096,0.668z" fill="#D5AD2D"/>
  <path id="svg_3" d="m177.89687,359.543c-29.81801,-1.276 -50.55,-5.242 -67.09501,-12.83398c-2.41499,-1.108 -2.05299,-0.36603 -4.657,-9.53403c-4.53699,-15.96698 -7.985,-30.435 -11.679,-48.99899c-1.87199,-9.41 -2.749,-13.345 -7.073,-31.73499c-7.76,-33.00002 -10.707,-48.173 -12.403,-63.854c-0.429,-3.972 0.344,-9.40201 1.559,-10.94701c0.719,-0.914 0.733,-3.248 0.021,-3.43401c-0.41499,-0.10799 -0.518,-0.45999 -0.67,-2.284c-0.126,-1.51399 -0.323,-2.33699 -0.66,-2.767c-0.327,-0.41499 -0.482,-1.02699 -0.482,-1.89999c0,-0.70801 -0.115,-1.36 -0.256,-1.446c-0.15401,-0.095 -0.256,-1.832 -0.256,-4.35001c0,-2.52 -0.102,-4.257 -0.256,-4.35201c-0.14,-0.08699 -0.256,0.07201 -0.256,0.354c0,3.155 -2.267,-2.591 -3.589,-9.095c-3.391,-16.69 -8.957,-33.277 -7.677,-22.87599c0.45,3.659 1.28,7.256 3.664,15.87799c2.8,10.12801 4.076,17.3 3.506,19.711c-0.814,3.44701 -6.07201,-17.25299 -9.10201,-35.83499c-0.77,-4.715 -1.924,-11.798 -2.567,-15.74001c-1.435,-8.806 -2.77,-15.42 -4.594,-22.75999c-1.826,-7.346 -1.774,-8.538 0.495,-11.427c4.677,-5.957 18.402,-10.587 19.885,-6.71c1.017,2.658 -1.98,4.5 -10.13,6.224c-7.064,1.494 -7.717,2.563 -3.883,6.35c3.834,3.786 26.071,7.17 52.382,7.971c46.55799,1.418 76.12299,1.792 84.45599,1.07c8.231,-0.714 8.72701,-0.709 10.10301,0.098c1.226,0.718 1.226,0.718 2.79199,0.33c1.56599,-0.39 1.942,-0.38 7.39999,0.193c1.18901,0.124 1.76001,0.044 2.86601,-0.405c1.22699,-0.498 1.48999,-0.524 2.355,-0.23701c1.793,0.596 18.883,0.424 24.90199,-0.25c16.74001,-1.878 36.554,-6.448 43.14403,-9.952c0.77499,-0.413 5.87198,-1.648 9.194,-2.229c3.18997,-0.557 5.25,-1.049 6.78198,-1.617c1.40701,-0.522 1.40701,-0.522 1.573,1.699c0.73499,9.874 -0.36398,25.80801 -2.34198,33.956c-0.52002,2.137 -1.13,5.547 -2.04001,11.389c-0.29602,1.9 -0.664,3.706 -0.81799,4.014c-0.155,0.30701 -0.211,0.825 -0.12601,1.14999c0.08499,0.32701 -0.12799,2.897 -0.47501,5.71201c-1.82101,14.814 -2.96799,29.838 -4.72699,61.935c-1.55701,28.407 -2.44702,41.226 -3.73102,53.746a476.41,476.41 0 0 0 -1.00699,11.26001c-1.043,14.13498 -2.61301,27.258 -5.284,44.14798c-0.91299,5.77402 -1.04102,7.13101 -1.11099,11.77301c-0.263,17.50101 -6.67801,27.44 -18.84402,29.19202c-1.17999,0.16998 -3.642,0.74899 -5.47198,1.28598c-14.83301,4.35501 -30.657,6.664 -52.33701,7.638c-17.58301,0.79001 -22.668,0.86902 -31.48,0.492zm-60.4,-26.47c-3.158,-12.875 -5.005,-18.98599 -7.22501,-23.91c-2.378,-5.272 -2.918,-5.97 -2.624,-3.392c1.35001,11.85001 4.60201,22.841 9.897,33.439c2.792,5.58801 2.79,5.43802 -0.048,-6.138l0,0.00101zm-5.535,8.52802c0.922,-3.43802 -0.552,-10.67001 -4.843,-23.77002c-2.448,-7.47 -4.251,-13.96799 -4.591,-16.53799c-0.223,-1.685 -0.454,-1.827 -1.412,-0.86899c-1.537,1.53699 -1.07201,4.716 2.389,16.349c0.93,3.13 1.825,6.69998 1.986,7.93298c0.947,7.25 5.718,19.70599 6.471,16.89502zm86.77999,-38.11401c4.67,-3.09299 4.05701,-12.108 -1.01799,-14.983c-4.57001,-2.58801 -7.02301,3.05099 -5.08301,11.681c0.87,3.871 3.276,5.17401 6.101,3.302zm-13.765,-0.681c3.48201,-1.78601 4.63901,-7.74399 2.457,-12.65701c-2.15199,-4.84399 -6.467,-2.38998 -7.245,4.12003c-0.112,0.94199 -0.37801,2.819 -0.59,4.16998c-0.76001,4.845 1.25499,6.48001 5.37799,4.367zm-84.73899,-8.90799c0.559,-4.46802 -0.6,-10.92401 -4.345,-24.23001c-1.063,-3.77301 -2.288,-8.668 -2.72301,-10.87601c-1.42099,-7.21999 -3.574,-10.73799 -2.53399,-4.14299c0.50399,3.20201 3.353,17.81001 3.967,20.347c0.341,1.40701 0.917,4.95801 1.28,7.88998c0.904,7.302 1.69701,10.19501 3.256,11.88c0.773,0.836 0.899,0.73602 1.10001,-0.86798l-0.001,0zm76.958,-8.28101c2.60699,-1.40601 5.26799,-2.048 8.48399,-2.04599c2.474,0.00198 4.34,0.25699 11.412,1.56198c8.62999,1.59302 13.70399,0.39401 13.105,-3.09799c-1.356,-7.91101 -5.379,-9.647 -17.731,-7.65302c-7.20599,1.16302 -12.424,1.21701 -15.35599,0.16c-2.31601,-0.83398 -2.175,-0.827 -3.894,-0.18399c-6.21701,2.32599 -5.944,9.737 0.43399,11.759c0.858,0.272 1.58,0.50101 1.604,0.51001c0.02499,0.00699 0.899,-0.44702 1.942,-1.01001zm-17.726,-16.414c19.495,-4.46701 25.78099,-28.84601 10.394,-40.31c-9.922,-7.392 -16.13501,-7.929 -31.636,-2.735c-3.16701,1.06099 -6.01801,2.093 -6.336,2.293c-1.13,0.711 -2.877,3.231 -2.877,4.14999c0,0.47101 -0.452,1.979 -1.005,3.35001c-7.32199,18.161 11.32001,37.86699 31.46001,33.252zm-24.69701,-13.952c-7.66901,-1.145 -9.322,-7.675 -3.452,-13.63701c4.265,-4.33 9.23,-4.705 12.875,-0.972c7.213,7.388 1.50299,16.241 -9.423,14.61l0,-0.00099zm97.23599,10.36301c13.39101,-2.25 21.78801,-17.64502 16.26601,-29.82301c-12.93001,-28.517 -59.368,-14.81799 -49.18401,14.509c4.354,12.53801 16.315,18.10301 32.918,15.31401zm-26.08699,-11.83501c-5.97,-1.47 -7.90601,-6.925 -4.707,-13.261c3.99899,-7.92201 12.55499,-7.82901 16.776,0.183c2.54999,4.84 1.972,6.452 -2.16301,6.03499c-3.718,-0.375 -4.93799,0.15601 -3.12,1.36c1.32401,0.87601 3.01801,2.40201 3.345,3.01201c1.021,1.908 -5.86101,3.722 -10.131,2.67l0,0.00101zm-64.382,-105.589c0.255,-0.136 1.18201,-0.276 2.06,-0.311c1.285,-0.05 1.63,-0.155 1.77101,-0.53799c0.15399,-0.41501 0.528,-0.485 2.97899,-0.56c3.68501,-0.112 5.145,-0.317 6.386,-0.89801c1.108,-0.519 11.76001,-0.935 18.81,-0.735c12.537,0.356 40.054,-0.004 40.40201,-0.528c0.33,-0.496 0.59399,-0.53299 3.84099,-0.537c3.649,-0.004 5.13701,-0.29599 5.74501,-1.127c0.31,-0.424 1.18399,-0.45 13.625,-0.42c13.549,0.033 18.01799,-0.181 18.817,-0.89999c0.27899,-0.252 1.04599,-0.364 2.48001,-0.364c1.142,0 2.147,-0.11501 2.23398,-0.256c0.10202,-0.164 3.88202,-0.25601 10.5,-0.25601c9.96802,0 10.35001,-0.01799 10.60602,-0.49599c0.22998,-0.429 0.63901,-0.51501 3.01599,-0.63301c5.65799,-0.28299 7.09601,-0.442 7.53,-0.832c0.332,-0.3 0.98502,-0.369 2.92902,-0.312c2.50198,0.07201 2.50198,0.07201 2.81198,-1.067c0.17001,-0.62599 0.54001,-1.772 0.823,-2.54601c0.41,-1.12399 0.55002,-2.36299 0.69101,-6.14299c0.19501,-5.172 0.375,-6.821 1.06201,-9.72501c0.55099,-2.32899 0.565,-17.85999 0.021,-23.93c-0.33902,-3.78699 -7.328,-5.21 -12.50201,-2.544c-0.854,0.44 -21.57599,2.896 -37.597,4.456c-16.198,1.578 -36.633,3.077 -47.603,3.492c-2.918,0.10999 -4.71501,0.28799 -5.157,0.51199c-0.58,0.29301 -0.87701,0.28001 -2.048,-0.09299c-0.918,-0.291 -2.252,-0.436 -4.056,-0.441c-2.62801,-0.007 -2.686,-0.02 -2.666,-0.589c0.028,-0.772 0.06,-0.76801 -7.44301,-0.94c-60.01999,-1.387 -100.23799,-3.456 -121.97399,-6.278c-2.532,-0.328 -2.791,-0.32 -2.791,0.086c0,0.712 2.072,2.68 3.71,3.525c2.061,1.062 2.092,1.527 0.126,1.886c-2.108,0.384 -2.045,0.13499 -1.217,4.766c3.32,18.58 8.201,22.785 18.505,15.946c5.927,-3.934 43.901,-8.008 68.963,-7.4c4.302,0.105 7.26801,0.06 8.701,-0.13c1.19701,-0.16 2.832,-0.35 3.634,-0.424c0.80299,-0.074 1.59399,-0.297 1.75999,-0.49599c0.164,-0.19901 0.739,-0.36201 1.27501,-0.36201c0.53699,0 1.29999,-0.133 1.696,-0.296c2.713,-1.114 23.37,-1.542 23.37,-0.484c0,0.186 -1.06201,1.2 -3.528,3.36401c-0.576,0.506 -3.56,2.808 -6.63,5.116c-4.65399,3.5 -7.76399,5.916 -9.164,7.121c-0.14,0.12099 -1.67999,1.736 -3.42,3.588c-7.159,7.618 -14.634,12.86099 -21.058,14.769c-0.89799,0.267 -1.26199,0.52901 -1.468,1.056c-0.34599,0.888 -1.46199,2.87401 -1.812,3.224c-0.744,0.744 0.19,1.25301 1.254,0.68401zm-62.686,-74.958c0,-0.26 0.385,-0.98 0.857,-1.6c1.184,-1.552 1.702,-2.62601 1.702,-3.527c0,-1 -0.341,-0.872 5.788,-2.18201c13.714,-2.93 19.58801,-3.68299 30.087,-3.858c55.37601,-0.92 71.63,-1.427 89.231,-2.79c4.47899,-0.346 4.47,-0.348 5.7,1.591c2.659,4.192 -4.868,6.947 -16.534,6.053c-1.12601,-0.087 -6.481,-0.19 -11.90001,-0.231c-9.85399,-0.07401 -9.85399,-0.07401 -15.20399,-1.152c-7.81,-1.573 -10.09799,-1.482 -12.347,0.493c-1.05499,0.926 -0.717,0.922 -3.245,0.031c-6.39101,-2.252 -14.298,-2.39 -27.044,-0.471c-4.294,0.646 -9.303,1.302 -11.133,1.457c-9.508,0.806 -18.424,2.453 -29.862,5.51801c-4.755,1.27399 -6.096,1.421 -6.096,0.668z" fill="#28A8DD"/>
  <path id="svg_4" d="m177.89685,359.543c-29.81801,-1.276 -50.55,-5.242 -67.09501,-12.83398c-2.41499,-1.108 -2.05299,-0.36603 -4.657,-9.53403c-4.53699,-15.96698 -7.985,-30.435 -11.679,-48.99899c-1.87199,-9.41 -2.749,-13.345 -7.073,-31.73499c-7.76,-33.00002 -10.707,-48.173 -12.403,-63.854c-0.474,-4.39 0.408,-9.765 1.838,-11.19501c0.933,-0.93401 1.056,-2.7 0.24,-3.45999c-0.37199,-0.347 -0.56599,-1.02 -0.74,-2.58301c-0.136,-1.214 -0.401,-2.298 -0.622,-2.547c-0.491,-0.552 -0.682,-2.173 -0.89999,-7.64301c-0.097,-2.41699 -0.269,-4.487 -0.382,-4.59999c-0.247,-0.24501 -0.68,0.375 -0.686,0.98099c-0.027,3.02301 -2.286,-2.74599 -3.593,-9.174c-3.391,-16.69 -8.957,-33.277 -7.677,-22.87599c0.45,3.659 1.28,7.256 3.664,15.87799c2.8,10.12801 4.076,17.3 3.506,19.711c-0.814,3.44701 -6.07201,-17.25299 -9.10201,-35.83499c-0.77,-4.715 -1.924,-11.798 -2.567,-15.74001c-1.435,-8.806 -2.77,-15.42 -4.594,-22.75999c-1.826,-7.346 -1.774,-8.538 0.495,-11.427c4.677,-5.957 18.402,-10.587 19.885,-6.71c1.017,2.658 -1.98,4.5 -10.13,6.224c-7.064,1.494 -7.717,2.563 -3.883,6.35c3.834,3.786 26.071,7.17 52.382,7.971c46.558,1.418 76.123,1.792 84.45599,1.07c8.231,-0.714 8.72701,-0.709 10.10301,0.098c1.226,0.718 1.226,0.718 2.79199,0.33c1.56599,-0.39 1.942,-0.38 7.39999,0.193c1.18901,0.124 1.76001,0.044 2.86601,-0.405c1.22699,-0.498 1.48999,-0.524 2.355,-0.23701c1.793,0.596 18.883,0.424 24.90199,-0.25c16.74002,-1.878 36.55402,-6.448 43.14401,-9.952c0.77499,-0.413 5.87201,-1.648 9.194,-2.229c3.19,-0.557 5.25,-1.049 6.78201,-1.617c1.40701,-0.522 1.40701,-0.522 1.573,1.699c0.73502,9.874 -0.36401,25.80801 -2.34201,33.956c-0.51999,2.137 -1.12997,5.547 -2.03998,11.389c-0.29602,1.9 -0.664,3.706 -0.81802,4.014c-0.155,0.30701 -0.211,0.825 -0.12598,1.14999c0.08499,0.32701 -0.12802,2.897 -0.47501,5.71201c-1.82101,14.814 -2.96802,29.838 -4.72702,61.935c-1.55701,28.407 -2.44699,41.22601 -3.73099,53.746a476.41,476.41 0 0 0 -1.00702,11.26001c-1.043,14.13498 -2.61298,27.258 -5.284,44.14798c-0.91299,5.77402 -1.04099,7.13101 -1.11099,11.77301c-0.263,17.50101 -6.67801,27.44 -18.84399,29.19202c-1.17999,0.16998 -3.642,0.74899 -5.47202,1.28598c-14.83299,4.35501 -30.65698,6.664 -52.33699,7.638c-17.58301,0.79001 -22.668,0.86902 -31.48,0.492zm-60.4,-26.47c-3.158,-12.875 -5.005,-18.98599 -7.22501,-23.91c-2.378,-5.272 -2.918,-5.97 -2.624,-3.392c1.35001,11.85001 4.60201,22.841 9.897,33.439c2.792,5.58801 2.79,5.43802 -0.048,-6.138l0,0.00101zm-5.535,8.52802c0.922,-3.43802 -0.552,-10.67001 -4.843,-23.77002c-2.448,-7.47 -4.251,-13.96799 -4.591,-16.53799c-0.223,-1.685 -0.454,-1.827 -1.412,-0.86899c-1.537,1.53699 -1.07201,4.716 2.389,16.349c0.93,3.13 1.825,6.69998 1.986,7.93298c0.947,7.25 5.71799,19.70599 6.471,16.89502zm86.77999,-38.11401c4.67,-3.09299 4.05701,-12.108 -1.01799,-14.983c-4.57001,-2.58801 -7.02301,3.05099 -5.08301,11.681c0.87,3.871 3.276,5.17401 6.101,3.302zm-13.765,-0.681c3.48201,-1.78601 4.63901,-7.74399 2.457,-12.65701c-2.15199,-4.84399 -6.467,-2.38998 -7.245,4.12003c-0.112,0.94199 -0.37801,2.819 -0.59,4.16998c-0.76001,4.845 1.25499,6.48001 5.37799,4.367zm-84.739,-8.90799c0.55901,-4.46802 -0.59999,-10.92401 -4.34499,-24.23001c-1.063,-3.77301 -2.288,-8.668 -2.72301,-10.87601c-1.42099,-7.21999 -3.574,-10.73799 -2.53399,-4.14299c0.50399,3.20201 3.353,17.81001 3.967,20.347c0.341,1.40701 0.917,4.95801 1.28,7.88998c0.904,7.302 1.69701,10.19501 3.256,11.88c0.773,0.836 0.899,0.73602 1.10001,-0.86798l-0.00101,0zm76.95801,-8.28101c2.60699,-1.40601 5.26799,-2.048 8.48399,-2.04599c2.474,0.00198 4.34,0.25699 11.412,1.56198c8.62999,1.59302 13.70399,0.39401 13.105,-3.09799c-1.356,-7.91101 -5.379,-9.647 -17.731,-7.65302c-7.20599,1.16302 -12.424,1.21701 -15.35599,0.16c-2.31601,-0.83398 -2.175,-0.827 -3.894,-0.18399c-6.21701,2.32599 -5.944,9.737 0.43399,11.759c0.858,0.272 1.58,0.50101 1.604,0.51001c0.02499,0.00699 0.899,-0.44702 1.942,-1.01001zm-17.726,-16.414c19.495,-4.46701 25.78099,-28.84601 10.394,-40.31c-10.173,-7.58 -16.658,-8.01001 -33.22701,-2.20201c-3.47499,1.218 -5.12799,1.686 -5.31,1.50401c-0.18201,-0.18201 -0.265,-0.12701 -0.265,0.17799c0,0.244 -0.16299,0.506 -0.362,0.58299c-0.756,0.29001 -1.61501,1.992 -1.666,3.298c-0.03,0.795 -0.424,2.20801 -1.03899,3.733c-7.30801,18.125 11.35999,37.82599 31.475,33.216zm-24.69701,-13.952c-7.66901,-1.145 -9.322,-7.675 -3.452,-13.63701c4.265,-4.33 9.23,-4.705 12.875,-0.972c7.213,7.388 1.50299,16.241 -9.423,14.61l0,-0.00099zm97.23599,10.36301c13.39101,-2.25 21.78801,-17.64502 16.26601,-29.82301c-12.93001,-28.517 -59.368,-14.81799 -49.18401,14.509c4.354,12.53801 16.315,18.10301 32.918,15.31401zm-26.08699,-11.83501c-5.97,-1.47 -7.90601,-6.925 -4.707,-13.261c3.99899,-7.92201 12.55499,-7.82901 16.776,0.183c2.54999,4.84 1.972,6.452 -2.16301,6.03499c-3.718,-0.375 -4.93799,0.15601 -3.12,1.36c1.32401,0.87601 3.01801,2.40201 3.345,3.01201c1.021,1.908 -5.86101,3.722 -10.131,2.67l0,0.00101zm-14.89301,-87.57001c0.188,-0.66 0.099,-0.98399 -0.56,-2.021c-5.02901,-7.93001 0.58299,-18.95201 8.528,-16.746c3.25,0.90199 3.25999,2.69701 0.06,9.69299c-3.024,6.60901 -2.79199,7.811 1.505,7.811c3.04199,0 2.901,0.21001 3.18599,-4.76199c0.731,-12.78201 4.58501,-17.09401 12.79501,-14.31801c2.12999,0.72101 2.166,0.76401 2.81,3.30301c2.467,9.743 5.832,12.50699 14.72,12.09299c6.306,-0.29399 7.70799,-1.62999 10.123,-9.644c2.05499,-6.823 3.48,-8.495 7.73199,-9.07599c1.019,-0.14001 2.37,-0.36201 3.004,-0.494c2.68602,-0.56201 5.347,-0.166 6.045,0.899c0.59402,0.90599 0.94202,0.49899 0.80402,-0.94c-0.12,-1.246 -0.12,-1.246 9.815,-1.246c9.56598,0 9.944,-0.01801 10.19998,-0.496c0.23001,-0.429 0.63901,-0.515 3.01602,-0.633c5.65799,-0.283 7.09598,-0.442 7.53,-0.832c0.332,-0.3 0.98499,-0.369 2.92899,-0.312c2.50201,0.07199 2.50201,0.07199 2.81201,-1.067c0.16998,-0.62601 0.53998,-1.772 0.823,-2.54601c0.41,-1.12399 0.54999,-2.36301 0.69098,-6.14301c0.19501,-5.172 0.375,-6.82099 1.06201,-9.72499c0.55099,-2.329 0.565,-17.86 0.021,-23.93c-0.33899,-3.787 -7.328,-5.21001 -12.50198,-2.54401c-0.854,0.44 -21.57602,2.896 -37.59702,4.456c-16.198,1.578 -36.633,3.077 -47.603,3.492c-2.918,0.11 -4.71501,0.28799 -5.157,0.51199c-0.58,0.29301 -0.87701,0.28001 -2.048,-0.09299c-0.918,-0.291 -2.252,-0.436 -4.056,-0.441c-2.62801,-0.007 -2.686,-0.02 -2.666,-0.589c0.028,-0.772 0.06,-0.76801 -7.44301,-0.94c-60.01999,-1.387 -100.23799,-3.456 -121.97399,-6.278c-2.532,-0.328 -2.791,-0.32 -2.791,0.086c0,0.712 2.072,2.68 3.71,3.525c2.061,1.062 2.092,1.527 0.126,1.886c-2.108,0.384 -2.045,0.13499 -1.217,4.766c3.32,18.58 8.201,22.785 18.505,15.946c4.904,-3.255 24.704,-5.92 53.127,-7.149c22.659,-0.98 17.575,0.46 -12.188,3.452c-14.661,1.473 -21.55299,2.425 -28.66399,3.959c-1.549,0.334 -3.624,0.666 -4.613,0.737c-8.61,0.626 -16.83,10.995 -12.508,15.778c1.277,1.414 3.125,2.05 6.66,2.297c1.56699,0.10901 2.957,0.265 3.09,0.347c0.132,0.082 1.787,0.43201 3.678,0.778c4.026,0.737 4.847,1.015 5.027,1.70401c0.121,0.46399 0.353,0.50899 2.631,0.50899c2.26801,0 2.53201,0.05 2.86201,0.54701c0.30299,0.45699 0.686,0.56699 2.324,0.67299c1.481,0.095 2.068,0.243 2.395,0.604c0.278,0.308 0.78001,0.48 1.403,0.48c0.532,0 1.04,0.114 1.127,0.255c0.08701,0.14 0.748,0.256 1.47,0.256c1.008,0 1.454,0.133 1.924,0.576c0.586,0.55 0.835,0.58 5.689,0.659c4.625,0.075 5.115,0.12601 5.52199,0.575c0.46301,0.513 2.92601,0.73801 2.92601,0.26801c0,-0.896 4.418,-1.642 10.10899,-1.70599c4.08101,-0.04601 5.61,-0.166 7.545,-0.59001c3.214,-0.707 3.32001,-0.543 1.552,2.39301c-0.424,0.70399 -0.881,1.53 -1.017,1.83501c-0.13499,0.30499 -0.56,0.70799 -0.944,0.896c-0.38499,0.187 -1.15599,1.011 -1.714,1.83099c-0.77199,1.13501 -1.327,1.638 -2.323,2.11c-4.29399,2.03 -7.77999,5.485 -5.536,5.485c0.576,0 1.323,0.18001 1.659,0.40001c0.554,0.364 0.683,0.364 1.386,0c0.42599,-0.22 0.936,-0.40001 1.134,-0.40001c0.19901,0 0.80299,-0.72 1.343,-1.59999c1.702,-2.77 8.782,-9.34201 9.69,-8.994c0.265,0.10199 0.472,-0.035 0.608,-0.40201c0.19099,-0.517 0.405,-0.563 3.00899,-0.644c3.30101,-0.103 5.51001,-0.353 5.89401,-0.666c0.16699,-0.136 0.95799,0.039 1.99799,0.44c2.959,1.144 3.175,2.42 0.638,3.767c-4.487,2.381 -5.24599,7.533 -1.70399,11.55701c3.052,3.46799 8.18001,2.77199 5.278,-0.716c-5.534,-6.649 -1.657,-12.209 10.022,-14.37401c7.44499,-1.37999 18.37,0.981 16.35899,3.537c-1.745,2.21901 -1.744,5.311 0.004,12.44c0.431,1.755 0.784,3.46001 0.784,3.787c0,1.05499 3.095,0.743 3.40601,-0.34401l0,0.00101zm37.51199,-9.166c-7.418,-2.64999 -7.33199,-10.838 0.11101,-10.623c2.077,0.06 2.52901,-0.00999 3.886,-0.614c5.29399,-2.35201 10.27,1.51801 8.733,6.78999c-0.905,3.10301 -2.713,4.27101 -7.07001,4.567c-4.017,0.274 -4.593,0.261 -5.66,-0.12zm-149.68699,-83.81c0,-0.262 0.385,-0.982 0.857,-1.6c1.184,-1.553 1.702,-2.62701 1.702,-3.528c0,-1 -0.341,-0.872 5.788,-2.18201c13.714,-2.93 19.58801,-3.68299 30.087,-3.858c55.37601,-0.92 71.63,-1.427 89.231,-2.79c4.47899,-0.346 4.47,-0.348 5.7,1.591c2.659,4.192 -4.868,6.947 -16.534,6.053c-1.12601,-0.087 -6.481,-0.19 -11.90001,-0.231c-9.85399,-0.07401 -9.85399,-0.07401 -15.20399,-1.152c-7.81,-1.573 -10.09799,-1.482 -12.347,0.493c-1.05499,0.926 -0.717,0.922 -3.245,0.031c-6.39101,-2.252 -14.298,-2.39 -27.044,-0.471c-4.294,0.646 -9.303,1.302 -11.133,1.457c-9.508,0.806 -18.424,2.453 -29.862,5.51801c-4.755,1.27399 -6.096,1.421 -6.096,0.668l0,0.001z" fill="#3698A6"/>
  <path id="svg_5" d="m182.59312,359.67401c-33.677,-1.80301 -49.70999,-4.452 -66.414,-10.97202c-7.265,-2.836 -7.284,-2.84799 -8.026,-5.284c-4.5,-14.76498 -9.192,-33.88998 -13.114,-53.44598c-2.281,-11.37399 -3.069,-14.91602 -7.62801,-34.31401c-11.56599,-49.20799 -14.47499,-69.41899 -10.62399,-73.80499c0.945,-1.076 1.073,-3.147 0.243,-3.92c-0.373,-0.34801 -0.567,-1.02101 -0.741,-2.584c-0.136,-1.214 -0.401,-2.298 -0.622,-2.547c-0.492,-0.55301 -0.682,-2.17601 -0.9,-7.67401c-0.138,-3.452 -0.258,-4.47499 -0.548,-4.65399c-0.522,-0.321 -0.778,-0.09001 -0.788,0.71199c-0.028,2.36 -2.11,-3.862 -3.325,-9.93199c-3.725,-18.62001 -10.312,-35.34 -7.522,-19.095c0.459,2.673 1.802,8.02 3.782,15.062c1.69501,6.024 2.644,10.612 2.951,14.27c0.981,11.657 -5.28,-11.76801 -8.549,-31.991c-4.48,-27.713 -5.75,-34.26401 -8.227,-42.48401c-1.07,-3.549 -0.559,-5.404 2.315,-8.407c6.045,-6.317 19.736,-9.835 18.73201,-4.813c-0.415,2.074 -3.16001,3.38 -10.115,4.812c-7.195,1.482 -7.924,2.72 -3.926,6.67c3.15,3.113 20.348,6.36501 40.25299,7.611c3.702,0.232 8.026,0.37901 30.711,1.04401c30.539,0.896 58.763,1.126 65.90199,0.53899c8.30301,-0.683 9.25999,-0.686 10.422,-0.033c0.93401,0.525 1.17,0.558 2.222,0.308c1.123,-0.266 1.987,-0.227 7.99301,0.36c1.20699,0.118 1.67299,0.032 2.84999,-0.525c1.20601,-0.57 1.513,-0.624 2.14,-0.373c1.44,0.57401 19.138,0.39 24.92,-0.258c16.75,-1.88 36.55402,-6.44901 43.14304,-9.952c0.77499,-0.41299 5.87198,-1.64799 9.194,-2.229c3.23297,-0.565 5.276,-1.049 6.60199,-1.563c2.245,-0.87099 2.776,11.01 1.065,23.811c-0.935,6.99599 -1.14401,8.352 -1.634,10.63801l-0.87799,4.09499c-2.83701,13.207 -5.28,39.46301 -7.58401,81.51302c-1.673,30.53 -2.478,41.83699 -4.09,57.45601c-0.26999,2.60498 -0.56,5.82999 -0.64499,7.16699c-0.75601,11.79001 -2.45102,25.99298 -5.38303,45.10901c-0.90997,5.931 -1.09998,7.74399 -0.97998,9.34097c1.241,16.42502 -6.34,28.65701 -18.97601,30.61902c-1.267,0.19699 -4.32999,0.94598 -6.80899,1.66501c-12.51801,3.633 -26.72002,5.802 -45.40002,6.93198c-12.093,0.73203 -28.513,1.30701 -31.99199,1.12003l0,0.00098zm-1.11,-3.617c0.94,-0.939 -1.83499,-1.38599 -13.86198,-2.23401c-2.88501,-0.203 -6.686,-0.54099 -8.44601,-0.75c-9.61299,-1.146 -17.23,-1.211 -14.40999,-0.125c5.108,1.97 35.30099,4.526 36.71799,3.11002l0,-0.00101zm-61.465,-13.207c0,-0.66101 -4.569,-18.96298 -5.72599,-22.93799c-2.135,-7.332 -5.92701,-16.38 -6.86401,-16.38c-0.877,0 1.298,12.45001 3.398,19.45099c2.77,9.23001 9.19199,23.11301 9.19199,19.867zm-7.89999,-1.077c0.88799,-4.10101 -0.399,-10.54001 -4.777,-23.90799c-2.407,-7.34802 -4.24,-13.91202 -4.608,-16.508c-0.237,-1.66 -0.485,-1.97403 -1.277,-1.61301c-2.285,1.04099 -1.932,4.69598 1.575,16.31198c0.912,3.01602 1.83301,6.64401 2.049,8.061c1.382,9.08701 6.25,21.298 7.038,17.65601zm86.5,-37.948c4.07799,-2.586 4.79199,-8.50601 1.57599,-13.078c-5.33299,-7.58002 -10.821,-0.117 -7.63399,10.383c0.965,3.17999 3.50899,4.31198 6.058,2.69501zm-13.68001,-0.76401c4.433,-2.28 5.177,-10.98401 1.28801,-15.07602c-2.32401,-2.44498 -5.735,1.09003 -6.35001,6.58002c-0.129,1.16 -0.345,2.586 -0.48,3.16998c-1.205,5.21802 1.22,7.548 5.54199,5.32602zm-84.52,-9.146c0.595,-3.85001 -0.652,-11.07001 -3.96,-22.92801c-1.27,-4.55099 -2.708,-10.26501 -3.195,-12.698c-1.184,-5.91299 -3.188,-9.925 -3.188,-6.383c0,1.78699 2.84,17.246 4.219,22.96298c0.356,1.478 0.93999,5.048 1.299,7.93402c0.95,7.65698 1.553,9.948 3.094,11.74799c1.157,1.35202 1.44,1.24802 1.731,-0.63599zm76.77,-8.297c4.561,-2.50302 8.388,-2.65201 18.457,-0.71802c13.338,2.56201 18.677,-1.30399 12.02299,-8.70398c-2.72499,-3.03101 -5.57399,-3.36002 -15.478,-1.78201c-6.608,1.052 -12.30299,1.13998 -14.71599,0.229c-2.935,-1.11002 -4.78,-0.724 -7.045,1.47198c-3.87401,3.75601 -1.283,9.40802 4.81799,10.513c0.04201,0.00702 0.91499,-0.44699 1.94,-1.00998l0.00099,0zm-17.44299,-16.228c2.815,-0.71402 3.53,-1.04599 7.959,-3.69299c14.67599,-8.77301 14.7,-30.03801 0.045,-38.492a498.73001,498.73001 0 0 1 -3.19901,-1.86301c-7.03099,-4.14101 -13.786,-3.91701 -27.38399,0.91c-2.464,0.875 -4.802,1.584 -5.196,1.575c-0.53101,-0.01201 -0.77701,0.145 -0.953,0.60699c-0.13,0.343 -0.33501,0.623 -0.45601,0.623c-0.57599,0 -1.84099,2.29001 -1.84099,3.33c0,0.65401 -0.39401,2.049 -1.01001,3.578c-7.37199,18.284 12.008,38.506 32.035,33.425zm-25.66499,-14.48601c-6.80101,-1.151 -8.09001,-7.298 -2.72301,-12.979c4.14999,-4.39299 8.802,-4.81599 12.47,-1.13399c7.48399,7.50999 1.59599,16.035 -9.74699,14.11299zm98.29498,10.87999c16.25699,-3.23398 22.851,-21.10799 12.978,-35.17799c-15.004,-21.38199 -51.938,-8.94699 -47.52,16c2.642,14.912 16.71201,22.72401 34.54201,19.17799zm-26.26001,-12.16499c-7.09799,-1.407 -8.39799,-10.10399 -2.41199,-16.12999c5.27899,-5.31499 12.782,-2.25 15.22699,6.21901c0.761,2.638 0.28801,3.006 -3.62,2.814c-4.508,-0.22099 -4.867,0.19 -2.026,2.321c2.252,1.69 2.925,2.55 2.448,3.125c-1.172,1.412 -6.345,2.3 -9.617,1.65001l0,0.00098zm0.28,-61.78899c1.83,-0.07501 3.73001,-0.20401 4.222,-0.28601a39.38,39.38 0 0 1 1.664,-0.23799c0.42201,-0.048 1.28601,-0.153 1.92,-0.23401l2.04701,-0.25999a62.81,62.81 0 0 0 1.791,-0.258c0.493,-0.08 1.241,-0.19501 1.664,-0.255c0.778,-0.112 3.338,-0.556 7.29399,-1.26601c16.967,-3.04199 28.8,-8.50999 41.49202,-19.17c0.37,-0.31099 1.16,-0.968 1.758,-1.45999a51.574,51.574 0 0 0 2.16699,-1.92c0.595,-0.563 1.86002,-1.71501 2.81,-2.56001c0.95001,-0.84399 2.33099,-2.11 3.07001,-2.81499c2.64099,-2.52 5.47101,-5.07501 7.853,-7.09001c0.617,-0.52299 1.466,-1.24399 1.88901,-1.605a87.48,87.48 0 0 1 1.97299,-1.61c0.845,-0.67 1.25601,-1.20799 1.37399,-1.8c0.15201,-0.759 0.24899,-0.836 0.95801,-0.767c0.62,0.06 0.85599,-0.05699 1.10199,-0.543c0.172,-0.34 0.49503,-0.72 0.716,-0.845c0.28601,-0.16 0.40302,-0.612 0.40302,-1.56c0,-1.13699 0.08499,-1.37 0.57599,-1.586c0.31601,-0.14 0.61002,-0.496 0.65302,-0.79401c0.04199,-0.297 0.34998,-0.66499 0.68298,-0.817c0.5,-0.22699 0.63901,-0.53999 0.78702,-1.76199c0.09799,-0.81799 0.263,-1.60201 0.366,-1.742c0.103,-0.14099 0.30798,-0.717 0.457,-1.28c0.14798,-0.563 0.5,-1.657 0.78299,-2.431c0.41,-1.125 0.54999,-2.36099 0.69101,-6.14299c0.19498,-5.172 0.375,-6.82101 1.06198,-9.72501c0.55099,-2.329 0.565,-17.86 0.021,-23.93c-0.33899,-3.787 -7.32797,-5.21 -12.50198,-2.544c-0.854,0.43999 -21.58701,2.897 -37.59702,4.456c-12.347,1.203 -28.16699,2.43999 -39.41298,3.085c-2.74501,0.157 -6.83301,0.39799 -9.08501,0.535c-5.33501,0.325 -6.241,0.314 -6.72,-0.083c-0.28,-0.23199 -1.26199,-0.319 -3.32401,-0.292c-2.78699,0.037 -2.92,0.015 -2.79599,-0.462c0.209,-0.799 -0.502,-0.898 -7.763,-1.076c-63.56601,-1.55901 -98.157,-3.345 -122.2,-6.31001c-2.681,-0.33 -2.693,-0.33 -2.693,0.233c0,0.787 2.151,2.946 3.823,3.837c1.87,0.997 1.923,1.22701 0.336,1.443c-2.53,0.343 -2.457,0.009 -1.335,6.048c3.295,17.736 8.84,22.187 18.764,15.06c3.015,-2.166 19.889,-5.082 35.484,-6.133c6.812,-0.46 8.08299,-0.527 17.147,-0.91199c10.47,-0.446 12.994,-0.472 12.653,-0.13c-0.336,0.335 -9.603,1.637 -17.38701,2.443c-22.85299,2.364 -25.895,2.75 -34.167,4.334c-2.46299,0.471 -5.51499,0.986 -6.78199,1.14301c-13.71301,1.702 -18.427,17.43999 -5.50201,18.367c4.613,0.33099 11.772,2.021 11.772,2.77901c0,0.30499 0.494,0.375 2.656,0.375c2.43,0 2.687,0.047 3.02,0.547c0.30299,0.457 0.686,0.567 2.324,0.67299c1.481,0.095 2.068,0.24301 2.395,0.604c0.278,0.308 0.78,0.48 1.403,0.48c0.532,0 1.04,0.11401 1.127,0.255c0.08701,0.14 0.748,0.256 1.47,0.256c1.008,0 1.454,0.13301 1.924,0.576c0.586,0.55 0.836,0.58 5.647,0.658c4.49,0.07399 5.08999,0.13499 5.54699,0.56c0.70201,0.65399 2.916,0.79199 3.49001,0.217c0.91,-0.91 4.89301,-1.55499 9.345,-1.515c3.67599,0.034 7.856,-0.36 9.62199,-0.90399c1.194,-0.369 -1.40999,4.76599 -2.687,5.29599c-0.38699,0.16101 -0.70599,0.423 -0.709,0.582c-0.015,0.90001 -1.608,2.763 -2.877,3.362c-10.936,5.16501 -11.13,16.39601 -0.403,23.369c6.948,4.517 8.244,5.304 11.22,6.813c7.006,3.554 16.252,6.44 23.8,7.42999c0.634,0.08301 1.44,0.203 1.79199,0.265c0.752,0.13501 2.67801,0.364 4.479,0.533a452,452 0 0 1 2.56,0.25c0.703,0.071 2.341,0.16 3.64,0.2c1.3,0.03801 2.41299,0.12001 2.474,0.18201c0.149,0.149 17.524,0.04199 21.78101,-0.133l0.00098,0zm-127.32598,-118.72602c0,-0.18999 0.385,-0.853 0.857,-1.47099c1.18,-1.547 1.702,-2.62701 1.702,-3.51501c0,-0.56899 0.14101,-0.78799 0.576,-0.894c12.236,-2.99 24.495,-4.744 34.358,-4.915c60.08,-1.04 72.78299,-1.434 89.70299,-2.792c4.50101,-0.36 4.58501,-0.341 5.64801,1.334c2.744,4.327 -1.412,5.826 -15.88501,5.73c-23.12,-0.155 -21.52699,-0.082 -27.45297,-1.274c-7.80101,-1.569 -10.24901,-1.461 -12.63802,0.556c-0.80701,0.681 -0.80701,0.681 -3.46901,-0.21c-6.61299,-2.212 -13.18399,-2.255 -27.45998,-0.177c-4.927,0.717 -10.51701,1.418 -12.42301,1.557c-6.64099,0.487 -13.86599,1.828 -25.05199,4.648c-7.219,1.82 -8.464,2.03 -8.464,1.423l-0.00002,0z" fill="#008ECF"/>
  <path id="svg_6" d="m182.59312,360.67401c-33.67702,-1.80301 -49.71001,-4.452 -66.41402,-10.97202c-7.26499,-2.836 -7.284,-2.84799 -8.02599,-5.284c-4.5,-14.76498 -9.192,-33.88998 -13.11401,-53.44598c-2.281,-11.37399 -3.06899,-14.91602 -7.628,-34.314c-11.53699,-49.08701 -14.48,-69.48302 -10.646,-73.77402c1.272,-1.424 2.29501,0.246 3.42001,5.58401c6.423,30.43999 16.92,70.29199 24.775,94.05399c2.938,8.888 2.44,8.03601 4.587,7.85602c2.226,-0.18701 2.262,-0.11002 1.151,2.47598c-2.06,4.798 -1.043,7.228 5.417,12.94202c2.74,2.423 2.487,3.134 -0.94,2.63998c-2.373,-0.341 -2.214,-0.67398 -1.32899,2.776a148.75999,148.75999 0 0 1 1.28,5.47601c4.508,21.65799 9.033,29.35001 18.39999,31.26999c28.94701,5.93799 61.98201,6.96301 105.658,3.27701c17.16,-1.448 30.52798,-6.78 34.80499,-13.883c1.10602,-1.836 1.13602,-1.75201 -0.69101,-1.94302c-2.948,-0.30798 -2.87,-1.02197 0.25101,-2.31598c4.62601,-1.918 6.07001,-3.42599 6,-6.267c-0.03198,-1.23199 0.147,-2.237 0.685,-3.85501c1.82501,-5.492 2.19601,-9.75299 1.772,-20.37299c-0.358,-8.95901 -0.25,-12.51602 0.48199,-15.85303c1.13101,-5.15598 1.73502,-10.29797 2.73602,-23.28998c0.67798,-8.80901 1.17798,-13.76601 1.784,-17.65901c0.57001,-3.664 0.862,-7.57199 1.27499,-17.01999c0.46799,-10.70201 0.76401,-14.80701 1.43201,-19.834c0.82999,-6.25201 0.97098,-6.72 2.483,-8.233c2.16699,-2.166 2.103,-3.686 -0.30301,-7.198c-3.672,-5.362 -3.67499,-8.173 -0.01001,-11.55c1.40201,-1.29401 1.44702,-3.17401 0.371,-15.50301c-1.13998,-13.05099 -1.11798,-17.34 0.086,-17.22299c0.61801,0.06 0.85501,-0.05701 1.10101,-0.543c0.172,-0.34001 0.495,-0.72 0.716,-0.845c0.28598,-0.16 0.40298,-0.612 0.40298,-1.56001c0,-1.13699 0.08502,-1.37 0.57602,-1.586c0.31598,-0.14 0.60999,-0.49599 0.65298,-0.79399c0.04199,-0.297 0.35001,-0.66501 0.68301,-0.817c0.5,-0.22701 0.63898,-0.54001 0.78699,-1.76201c0.09799,-0.81799 0.263,-1.60199 0.366,-1.74199c0.103,-0.14101 0.30801,-0.71701 0.457,-1.28c0.14801,-0.563 0.5,-1.657 0.78299,-2.431c0.41,-1.125 0.55002,-2.36101 0.69101,-6.14301c0.19501,-5.172 0.375,-6.821 1.06201,-9.725c0.55099,-2.329 0.565,-17.86 0.021,-23.93c-0.33899,-3.787 -7.328,-5.21 -12.50201,-2.544c-0.85397,0.43999 -21.58698,2.897 -37.59698,4.456c-12.34702,1.203 -28.16701,2.43999 -39.41299,3.085c-2.745,0.157 -6.83301,0.39799 -9.08502,0.535c-5.33499,0.325 -6.241,0.314 -6.72,-0.083c-0.28,-0.232 -1.26198,-0.319 -3.32397,-0.292c-2.787,0.037 -2.92001,0.015 -2.79602,-0.462c0.209,-0.799 -0.50198,-0.898 -7.763,-1.076c-63.56599,-1.559 -98.15699,-3.34499 -122.19998,-6.31c-2.681,-0.33 -2.693,-0.33 -2.693,0.233c0,0.787 2.151,2.946 3.823,3.837c1.87,0.997 1.923,1.227 0.336,1.443c-2.53,0.343 -2.457,0.009 -1.335,6.048c3.295,17.73599 8.84,22.187 18.764,15.06c3.015,-2.166 19.889,-5.082 35.484,-6.133c6.812,-0.46 8.08299,-0.527 17.147,-0.91199c10.47,-0.44601 12.994,-0.472 12.653,-0.13c-0.336,0.335 -9.603,1.637 -17.387,2.443c-22.853,2.364 -25.895,2.75 -34.167,4.334c-2.463,0.471 -5.515,0.986 -6.782,1.143c-13.71301,1.702 -18.427,17.44001 -5.502,18.367c2.24,0.16101 10.496,1.72 11.254,2.12701c0.881,0.47099 0.64301,1.25 -0.535,1.75099c-1.054,0.448 -1.054,0.448 0.01801,1.157c0.878,0.58101 1.016,0.776 0.766,1.078c-0.465,0.56 -0.69,0.515 -8.335,-1.685c-9.606,-2.765 -11.678,-2.968 -9.055,-0.89c2.01,1.591 1.745,2.24899 -0.616,1.532c-2.131,-0.646 -2.005,-1.28799 -1.03101,5.25c0.241,1.619 0.429,3.375 0.417,3.903c-0.013,0.52901 0.148,1.73801 0.355,2.688c0.97,4.42799 1.06,7.50299 0.188,6.313c-0.604,-0.82401 -2.064,-5.89801 -2.902,-10.089c-3.725,-18.62001 -10.312,-35.34 -7.522,-19.095c0.459,2.673 1.802,8.02 3.782,15.062c1.695,6.024 2.644,10.612 2.951,14.27c0.981,11.657 -5.28,-11.76801 -8.549,-31.991c-4.48,-27.713 -5.75,-34.26399 -8.227,-42.48401c-1.07,-3.549 -0.559,-5.404 2.315,-8.407c6.045,-6.317 19.736,-9.835 18.732,-4.813c-0.415,2.074 -3.16,3.38 -10.115,4.812c-7.195,1.482 -7.924,2.72 -3.926,6.67c3.15,3.113 20.348,6.36501 40.25301,7.611c3.702,0.232 8.026,0.37901 30.711,1.04401c30.539,0.896 58.76299,1.126 65.90199,0.53899c8.30299,-0.683 9.26001,-0.686 10.42201,-0.033c0.93401,0.525 1.17,0.558 2.222,0.308c1.12299,-0.266 1.987,-0.227 7.993,0.36c1.20699,0.118 1.673,0.032 2.85001,-0.525c1.20598,-0.57 1.51299,-0.624 2.14,-0.373c1.44,0.57401 19.138,0.39 24.92,-0.258c16.74998,-1.88 36.554,-6.44901 43.14299,-9.952c0.77499,-0.41299 5.87201,-1.64799 9.194,-2.229c3.233,-0.565 5.276,-1.049 6.60199,-1.563c2.24503,-0.87099 2.77603,11.01 1.065,23.81101c-0.935,6.99599 -1.14398,8.352 -1.634,10.638l-0.87799,4.095c-2.83701,13.207 -5.28,39.463 -7.58398,81.513c-1.673,30.53 -2.47803,41.83699 -4.09003,57.45601c-0.26999,2.60498 -0.56,5.82999 -0.64499,7.16699c-0.75601,11.79001 -2.45099,25.99298 -5.383,45.10901c-0.91,5.931 -1.10001,7.74399 -0.98001,9.34097c1.241,16.42502 -6.34,28.65701 -18.97598,30.61902c-1.267,0.19699 -4.33002,0.94598 -6.80902,1.66501c-12.51799,3.633 -26.72,5.802 -45.39998,6.93198c-12.093,0.73203 -28.513,1.30701 -31.992,1.12003l0,0.00098zm-1.11002,-3.617c0.94002,-0.939 -1.83499,-1.38599 -13.86198,-2.23401c-2.88499,-0.203 -6.686,-0.54099 -8.446,-0.75c-9.61301,-1.146 -17.23,-1.211 -14.41,-0.125c5.108,1.97 35.30101,4.526 36.71799,3.11002l0,-0.00101zm-61.46499,-13.207c0,-0.66101 -4.569,-18.96298 -5.726,-22.93799c-2.135,-7.332 -5.927,-16.38 -6.86401,-16.38c-0.87699,0 1.298,12.45001 3.39801,19.45099c2.76999,9.23001 9.19199,23.11301 9.19199,19.867zm-7.9,-1.077c0.888,-4.10101 -0.399,-10.54001 -4.777,-23.90799c-2.407,-7.34802 -4.24,-13.91202 -4.60799,-16.508c-0.237,-1.66 -0.485,-1.97403 -1.277,-1.61301c-2.285,1.04099 -1.932,4.69598 1.575,16.31198c0.912,3.01602 1.833,6.64401 2.049,8.061c1.382,9.08701 6.25,21.298 7.03799,17.65601zm-11.7,-47.858c0.595,-3.85001 -0.652,-11.07001 -3.96,-22.92801c-1.27,-4.55099 -2.708,-10.26501 -3.19501,-12.698c-1.18399,-5.91299 -3.188,-9.925 -3.188,-6.383c0,1.78699 2.84,17.246 4.219,22.96298c0.356,1.478 0.93999,5.048 1.299,7.93402c0.95,7.65698 1.55299,9.948 3.094,11.74799c1.157,1.35202 1.43999,1.24802 1.731,-0.63599zm56.198,25.323a232.28,232.28 0 0 0 -2.94299,-0.37c-1.267,-0.15302 -6.04601,-1.022 -10.621,-1.931c-9.508,-1.89001 -14.394,-2.64502 -17.15401,-2.651c-3.057,-0.00702 -4.062,-1.35001 -2.31599,-3.095c1.279,-1.28 3.754,-0.99402 11.412,1.31598c5.248,1.582 9.15599,2.53302 11.504,2.797c0.99001,0.112 2.952,0.45102 4.36,0.75403c2.09801,0.45099 17.05901,2.319 18.575,2.319c0.23799,0 0.492,0.22998 0.56601,0.51199c0.12599,0.48398 -10.52501,0.76199 -13.38301,0.35001l0,-0.00101zm24.185,-11.45001c-3.414,-1.60699 -4.66,-4.02798 -5.37799,-10.44998c-0.96901,-8.67502 -2.334,-10.60901 -8.35201,-11.83502c-1.424,-0.28998 -1.638,-4.94 -0.356,-7.73999c1.35701,-2.96399 4.448,-6.37698 9.45801,-10.444c1.38699,-1.12601 3.263,-2.76401 4.168,-3.63901c1.99399,-1.92798 2.26801,-2 7.37,-1.96399c11.45801,0.08099 23.155,9.13 26.715,20.66602c0.94,3.04398 0.838,3.19998 -4.19299,6.45099c-6.24399,4.035 -7.56599,6.09201 -6.79001,10.564c1.20102,6.91 -1.91998,9.04401 -10.129,6.92502c-5.47198,-1.41302 -7.98199,-1.09402 -9.763,1.23999c-0.755,0.991 -1.069,1.017 -2.75,0.22601l0,-0.00003zm17.81702,-3.96298c4.07797,-2.586 4.79198,-8.50601 1.57597,-13.078c-5.33298,-7.58002 -10.821,-0.117 -7.63399,10.383c0.965,3.17999 3.509,4.31198 6.05801,2.69501zm-13.68001,-0.76401c4.43298,-2.28 5.177,-10.98401 1.28799,-15.07602c-2.32399,-2.44498 -5.735,1.09003 -6.34999,6.58002c-0.129,1.16 -0.345,2.586 -0.48001,3.16998c-1.205,5.21802 1.22,7.548 5.54201,5.32602zm-7.75002,-17.44299c4.56102,-2.50302 8.388,-2.65201 18.45702,-0.71802c13.338,2.56201 18.67699,-1.30399 12.02299,-8.70398c-2.72499,-3.03101 -5.57401,-3.36002 -15.478,-1.78201c-6.608,1.052 -12.30299,1.13998 -14.716,0.229c-2.935,-1.11002 -4.78,-0.724 -7.045,1.47198c-3.87399,3.75601 -1.283,9.40802 4.81801,10.513c0.04199,0.00702 0.91498,-0.44699 1.93999,-1.00998l0.00099,0zm-29.80598,-12.543c-17.96301,-3.04001 -30.22401,-22.99501 -23.04001,-37.496c2.97601,-6.007 5.81401,-5.68201 3.368,0.386c-7.933,19.67601 16.42699,41.75401 35.587,32.252c18.722,-9.285 21.12199,-31.39601 4.45201,-41.01201a498.73001,498.73001 0 0 1 -3.19901,-1.86301c-7.005,-4.12599 -13.73701,-3.91499 -27.256,0.856c-4.3,1.51801 -4.81302,1.67 -5.43901,1.61c-0.562,-0.05299 -0.355,-0.39 1.28,-2.084c15.028,-15.56 47.54701,-4.424 49.56902,16.976c1.76999,18.73399 -15.64001,33.70601 -35.32201,30.37502zm74.496,-1.96201c-22.60301,-2.28 -36.24699,-23.955 -25.647,-40.742c14.11499,-22.355 46.62801,-19.407 55.97101,5.075c6.93999,18.18401 -9.694,37.74901 -30.32401,35.66701zm10.49698,-5.33002c16.257,-3.233 22.85101,-21.10699 12.97801,-35.17699c-15.004,-21.38199 -51.938,-8.94701 -47.51999,16c2.642,14.912 16.71201,22.72398 34.54198,19.17799l0,-0.00101zm-26.25998,-12.16399c-7.09801,-1.407 -8.39799,-10.104 -2.412,-16.13c5.27899,-5.315 12.782,-2.25 15.22701,6.21899c0.761,2.638 0.28799,3.00601 -3.62001,2.81401c-4.508,-0.22101 -4.867,0.19 -2.026,2.321c2.25201,1.69 2.92499,2.55 2.448,3.125c-1.172,1.412 -6.345,2.3 -9.61699,1.64999l0,0.00101zm-72.035,1.285c-6.801,-1.151 -8.09,-7.298 -2.72301,-12.979c4.14999,-4.39301 8.802,-4.81601 12.47,-1.134c7.48399,7.50999 1.59601,16.03499 -9.74699,14.11301zm-55.01,-181.80001c0,-0.18999 0.385,-0.853 0.857,-1.47099c1.17999,-1.547 1.702,-2.62701 1.702,-3.51501c0,-0.56899 0.141,-0.78799 0.576,-0.894c12.236,-2.99 24.495,-4.744 34.358,-4.915c60.08001,-1.04 72.783,-1.434 89.703,-2.792c4.50102,-0.36 4.58502,-0.341 5.64801,1.334c2.744,4.327 -1.41202,5.826 -15.88501,5.73c-23.12,-0.155 -21.52699,-0.082 -27.45299,-1.274c-7.80099,-1.569 -10.24899,-1.461 -12.638,0.556c-0.80701,0.681 -0.80701,0.681 -3.46901,-0.21c-6.61301,-2.212 -13.18401,-2.255 -27.45998,-0.177c-4.927,0.717 -10.51701,1.418 -12.423,1.557c-6.64101,0.487 -13.866,1.828 -25.052,4.648c-7.219,1.82 -8.464,2.03 -8.464,1.423l-0.00001,0z" fill="#1B6F95"/>
  <path id="svg_7" d="m182.33093,359.58301c-33.468,-1.84799 -50.104,-4.66 -66.6,-11.263c-6.73,-2.69299 -6.611,-2.61398 -7.314,-4.86301c-3.993,-12.78998 -9.123,-33.73898 -13.244,-54.08701c-2.4,-11.84497 -3.277,-15.78299 -7.827,-35.10498c-11.27299,-47.88 -14.65299,-72.427 -9.96999,-72.427c1.107,0 1.434,0.94699 3.481,10.10899c8.252,36.92 17.30999,70.85399 24.68199,92.459c2.08801,6.11798 1.774,5.655 3.729,5.49802c2.07401,-0.16702 2.057,-0.20401 1,2.19299c-1.876,4.25198 -0.715,7.15298 4.901,12.24197c3.162,2.86502 3.151,3.19501 -0.086,2.72302c-2.563,-0.37402 -2.522,-0.41501 -1.882,1.88498c0.287,1.034 1.106,4.52802 1.82,7.76501c4.76801,21.62 9.082,28.728 18.628,30.694c28.45001,5.858 64.15001,6.83899 108.31401,2.97501c15.33302,-1.34201 29.40001,-7.522 32.88301,-14.44601c0.767,-1.526 0.73297,-1.59 -0.95502,-1.79999c-2.64697,-0.33102 -2.612,-0.53 0.31903,-1.79202c4.37997,-1.88699 5.73999,-3.327 5.79099,-6.12598c0.02301,-1.27301 0.27399,-2.58902 0.81598,-4.28c1.72299,-5.38 2.12802,-10.54001 1.63602,-20.83701c-0.375,-7.836 -0.28101,-10.992 0.43198,-14.46701c1.21402,-5.918 1.82004,-11.21799 2.983,-26.09698c0.35703,-4.57501 0.98502,-10.85201 1.39502,-13.94801c0.785,-5.933 1.16699,-10.28999 1.40302,-15.996c0.66599,-16.08299 1.15399,-21.825 2.33398,-27.49399c0.32001,-1.54001 0.534,-1.94801 1.62,-3.097c2.39502,-2.53201 2.31403,-3.85001 -0.49799,-8.11401c-3.33203,-5.054 -3.33301,-6.86699 -0.00101,-10.50999c1.54999,-1.69499 1.642,-4.705 0.52301,-17.312c-0.82901,-9.34601 -0.83203,-15.425 -0.01001,-15.623c0.35098,-0.084 0.77499,-0.427 0.94098,-0.761c0.16702,-0.33501 0.48502,-0.71001 0.70602,-0.834c0.28,-0.15601 0.40302,-0.603 0.40302,-1.467c0,-1.15001 0.05698,-1.26201 0.76797,-1.51001c0.422,-0.14699 0.767,-0.448 0.767,-0.67c0,-0.22099 0.27402,-0.52699 0.608,-0.67999c0.73001,-0.332 1.31799,-1.92 1.10501,-2.98601c-0.15503,-0.77499 0.17599,-2.233 1.05798,-4.66c0.40802,-1.12 0.548,-2.37 0.69,-6.142c0.19501,-5.172 0.375,-6.82099 1.06201,-9.72499c0.55099,-2.329 0.565,-17.86 0.021,-23.93c-0.34,-3.787 -7.328,-5.21001 -12.50201,-2.54401c-0.854,0.44 -21.57599,2.896 -37.59698,4.456c-16.162,1.57401 -36.54401,3.07 -47.603,3.494c-2.463,0.094 -4.69501,0.249 -4.96001,0.344c-0.26399,0.09499 -1.06999,0.00999 -1.791,-0.19c-2.407,-0.665 -3.34599,-0.783 -5.08499,-0.638c-1.64801,0.137 -1.72801,0.118 -1.72801,-0.414c0,-0.846 2.457,-0.726 -40.17999,-1.953c-38.926,-1.12 -62.48502,-2.43401 -82.794,-4.618c-10.77,-1.159 -10.644,-1.166 -9.605,0.515c0.719,1.163 2.048,2.302 3.61,3.094c1.542,0.781 1.461,1.026 -0.416,1.26c-1.846,0.23 -1.825,0.10699 -0.89,5.299c3.367,18.713 8.437,22.993 18.969,16.013c3.487,-2.312 19.09,-5.02 35.67899,-6.194c10.385,-0.734 27.57101,-1.39 27.21901,-1.037c-0.35001,0.35001 -10.05701,1.527 -24.276,2.943c-12.427,1.23901 -20.366,2.349 -25.97701,3.633c-1.266,0.29 -3.301,0.616 -4.522,0.725c-14.91699,1.333 -20.603,18.086 -6.50999,19.177c1.564,0.121 3.015,0.289 3.227,0.373c0.21,0.084 1.9,0.431 3.752,0.772c4.768,0.87799 5.26201,1.23999 3.001,2.20999c-1.37599,0.59 -1.37599,0.586 -0.035,1.451c1.724,1.11299 0.596,1.01801 -4.035,-0.338c-12.923,-3.78601 -15.67899,-4.06401 -12.508,-1.26001c1.497,1.32201 1.42,1.52 -0.383,0.992c-0.941,-0.276 -1.43999,-0.317 -1.625,-0.132c-0.282,0.28201 0.374,5.36601 2.235,17.31801c0.635,4.076 -1.765,-1.96001 -2.701,-6.795c-2.92001,-15.07701 -7.536,-29.442 -8.804,-27.39101c-0.59,0.954 1.123,9.71001 3.71,18.976c2.638,9.44101 3.828,15.28 3.828,18.77301c0,5.836 -5.70501,-17.024 -8.426,-33.763l-2.435,-14.97201c-1.645,-10.116 -2.828,-16.136 -4.375,-22.266c-1.498,-5.933 -1.434,-5.708 -1.747,-6.107c-1.02,-1.297 0.07,-4.863 2.248,-7.352c5.278,-6.034 18.83,-9.85 18.83,-5.303c0,2.006 -2.874,3.38 -10.365,4.954c-7.022,1.476 -7.64,2.708 -3.497,6.97c1.336,1.374 1.883,1.58 8.232,3.108c12.747,3.06599 25.836,4.39999 49.138,5.005c5.56,0.145 13.91,0.381 18.55499,0.525c23.983,0.743 50.99901,0.973 58.73601,0.5c9.85201,-0.60201 11.69499,-0.621 12.786,-0.12901c0.88701,0.4 1.166,0.418 2.158,0.14c0.62599,-0.175 1.28,-0.23 1.455,-0.12299c0.173,0.10699 1.36299,0.28999 2.64299,0.407c1.28001,0.116 2.87001,0.282 3.53401,0.369c1.243,0.162 3.20399,-0.365 4.069,-1.09499c0.325,-0.275 0.567,-0.286 1.151,-0.053c1.44699,0.577 19.12599,0.396 24.92499,-0.255c16.75,-1.88 36.55499,-6.449 43.14401,-9.952c0.77197,-0.41 5.85001,-1.643 9.194,-2.231c3.82001,-0.672 4.85999,-0.915 6.22098,-1.453c1.01001,-0.399 1.43301,-0.46301 1.64801,-0.248c0.70999,0.71 0.84799,15.245 0.18701,19.873c-0.13998,0.986 -0.487,3.692 -0.76999,6.015c-0.284,2.322 -1.03003,6.756 -1.65802,9.853c-0.94998,4.684 -2.36499,13.052 -2.83499,16.763c-2.08701,16.45 -3.54501,34.44501 -5.09201,62.83c-1.89499,34.785 -2.582,44.62399 -4.34302,62.19199c-0.33798,3.37802 -0.68997,7.35101 -0.78,8.83002c-0.63397,10.36798 -2.38797,24.90298 -5.258,43.56198c-0.853,5.54202 -1.013,7.207 -1.013,10.54703c0,17.745 -6.39297,27.50699 -19.20499,29.32397c-1.04797,0.15002 -2.98502,0.617 -4.30499,1.04001c-13.74501,4.40201 -33.812,7.17801 -58.131,8.04001c-2.32301,0.08301 -5.54701,0.25699 -7.166,0.388c-4.27101,0.34399 -10.905,0.46201 -14.58801,0.259zm-0.85501,-3.345c2.59401,-0.987 -1.54999,-1.754 -13.74399,-2.54401a208.06599,208.06599 0 0 1 -8.37,-0.75998c-10.59502,-1.21201 -17.20201,-1.23602 -14.99602,-0.05502c3.657,1.95801 33.65501,4.672 37.11,3.35901zm-61.07999,-13.04001c0,-4.48199 -8.646,-32.853 -11.678,-38.323c-3.355,-6.04999 -0.173,12.73602 4.085,24.12201c3.292,8.79999 7.593,16.845 7.593,14.20001l0,0.00098zm-7.903,-2.66998c0.12,-6.06201 -0.59299,-9.388 -4.776,-22.28c-2.932,-9.03601 -3.708,-11.76001 -4.472,-15.70599c-0.672,-3.46503 -1.009,-3.83902 -2.25999,-2.50601c-1.692,1.79999 -1.363,4.63998 1.743,15.05399c1.832,6.14603 2.386,8.43002 2.688,11.09201c0.506,4.465 4.077,14.23502 5.97,16.332c0.636,0.70599 1.07001,-0.07001 1.107,-1.98499l0,-0.00101zm-11.959,-45.33499c1.064,-2.772 -0.335,-11.74301 -3.723,-23.87402c-2.255,-8.073 -3.05299,-11.29398 -3.65,-14.73798c-0.648,-3.73601 -2.562,-7.18602 -3.07999,-5.55301c-0.285,0.89699 3.06999,19.77399 4.327,24.35199c0.213,0.77402 0.68401,3.76801 1.047,6.65399c1.27,10.08102 3.772,16.56601 5.07999,13.16l-0.001,-0.00098zm57.228,23.77399c-2.597,-0.19699 -8.705,-1.22 -14.972,-2.50699c-7.94801,-1.63303 -10.856,-2.10001 -15.612,-2.51001c-3.583,-0.30899 -3.583,-0.30899 -3.658,-1.077c-0.256,-2.612 2.458,-2.61801 11.209,-0.026c6.64999,1.97 8.571,2.444 10.62001,2.61798c0.98599,0.08401 2.65599,0.37201 3.711,0.64001c2.05699,0.522 6.98199,1.22198 13.17999,1.87299c5.34999,0.561 6.013,0.67502 5.375,0.927c-0.495,0.19601 -7.506,0.24002 -9.853,0.06201zm23.161,-11.63599c-3.24199,-1.67502 -4.332,-3.987 -5.11,-10.84201c-0.59599,-5.25699 -1.09801,-6.909 -2.604,-8.57501c-1.12999,-1.25198 -2.974,-2.246 -4.56999,-2.465c-5.714,-0.78299 -2.045,-9.457 7.29401,-17.245c1.75999,-1.46799 3.96199,-3.38 4.89499,-4.25201c1.989,-1.85797 2.592,-2.02798 7.006,-1.974c11,0.134 22.52101,9.06702 26.218,20.32901c0.992,3.021 1.043,2.94501 -4.392,6.47c-6.105,3.95801 -7.44499,6.431 -6.323,11.66501c1.13,5.271 -2.78101,7.543 -9.49001,5.50998c-4.758,-1.43997 -8.68599,-0.98798 -10.29399,1.186c-0.647,0.875 -1.22701,0.918 -2.63,0.19302zm16.944,-2.90903c7.14799,-2.98599 4.77499,-18.28799 -2.62,-16.901c-4.293,0.80502 -5.02,13.74701 -0.925,16.43002c1.32899,0.871 2.284,0.99799 3.545,0.47098zm-12.98599,-1.18698c4.776,-2.05099 5.63599,-11.832 1.37,-15.578c-2.05501,-1.80402 -5.423,1.095 -6.09,5.24301c-0.06801,0.42798 -0.35701,2.17999 -0.64001,3.88998c-1.12799,6.797 0.364,8.59 5.36002,6.44501zm-7.33701,-17.60001c4.368,-2.38199 8.214,-2.54599 17.50301,-0.74799c9.28699,1.797 15.68999,1.03198 15.48299,-1.85001c-0.213,-2.966 -1.493,-6.052 -3.092,-7.457c-3.06999,-2.69501 -5.642,-2.81 -18.453,-0.828c-5.14699,0.79599 -10.38998,0.46399 -12.86299,-0.815c-1.54301,-0.798 -5.29301,1.04401 -6.66499,3.272c-3.12201,5.07498 2.84,11.28799 8.08699,8.42599zm-29.10199,-12.82501c-19.192,-3.017 -32.136,-25.112 -22.69,-38.728c2.798,-4.03101 3.87599,-3.076 1.987,1.75999c-8.02,20.532 16.563,42.20702 36.42599,32.11601c18.882,-9.59302 20.229,-31.87801 2.51601,-41.61601a251.798,251.798 0 0 1 -3.41701,-1.911c-5.89598,-3.395 -13.37799,-2.82001 -27.08398,2.08c-4.658,1.666 -4.76801,1.60699 -2.028,-1.08501c9.97499,-9.79999 29.83598,-8.396 41.04799,2.90001c18.214,18.34999 -0.034,48.68599 -26.758,44.48399zm74.326,-2.07199c-21.44701,-1.82101 -35.61,-21.507 -27.319,-37.97c12.90399,-25.62001 49.59999,-21.63501 57.59,6.25499c4.50598,15.73001 -12.214,33.248 -30.271,31.71501zm3.892,-4.36401c22.08899,0.634 31.64801,-24.15999 15.425,-40.00499c-11.606,-11.33501 -34.70801,-7.89801 -42.07401,6.25999c-7.922,15.228 4.55,34.99802 21.35001,33.84299a66.034,66.034 0 0 1 5.29999,-0.09799l-0.00099,0zm-21.222,-13.12c-5.49501,-1.717 -6.92801,-7.81999 -3.194,-13.597c4.81,-7.442 13.312,-5.70999 16.42799,3.34401c1.10001,3.198 0.757,3.58899 -2.92999,3.33699c-4.636,-0.31599 -5.517,0.367 -2.89101,2.243c3.09401,2.21101 3.646,3.16501 2.252,3.886c-2.08499,1.078 -7.36,1.50801 -9.66499,0.787zm-69.55801,1.66301c-6.86998,-0.673 -9.25399,-4.285 -6.508,-9.86301c3.16,-6.42 10.30701,-8.509 14.537,-4.24699c6.907,6.95999 2.26501,15.11699 -8.02901,14.11zm-56.54499,-181.69701c-0.078,-0.127 0.371,-0.915 1,-1.75c1.222,-1.627 1.672,-2.568 1.672,-3.498c0,-0.555 0.298,-0.643 6.462,-1.906c17.4,-3.563 14.914,-3.382 56.49599,-4.12c31.715,-0.564 48.453,-1.196 62.18401,-2.347c3.735,-0.313 4.72,0.137 5.34999,2.448c1.03401,3.792 -1.97499,4.375 -22.23399,4.31c-17.224,-0.054 -14.483,0.152 -25.08099,-1.891c-4.436,-0.855 -7.52501,-0.41901 -9.061,1.28c-0.62001,0.684 -0.86101,0.67599 -3.005,-0.097c-3.836,-1.384 -6.53999,-1.768 -12.375,-1.756c-5.59099,0.01 -6.27599,0.08 -18.3,1.856c-2.885,0.427 -6.8,0.897 -8.7,1.046c-8.24699,0.644 -16.797,2.266 -29.66,5.627c-4.215,1.10101 -4.528,1.154 -4.748,0.798z" fill="#0C0E0E"/>
 </g>
</svg>