<?xml version="1.0" standalone="no"?>
<!DOCTYPE svg PUBLIC "-//W3C//DTD SVG 20010904//EN"
 "http://www.w3.org/TR/2001/REC-SVG-20010904/DTD/svg10.dtd">
<svg version="1.0" xmlns="http://www.w3.org/2000/svg"
 width="414.000000pt" height="414.000000pt" viewBox="0 0 414.000000 414.000000"
 preserveAspectRatio="xMidYMid meet">
<metadata>
Created by potrace 1.14, written by Peter Selinger 2001-2017
</metadata>
<g transform="translate(0.000000,414.000000) scale(0.100000,-0.100000)"
fill="#000000" stroke="none">
<path d="M1850 4099 c-47 -5 -141 -20 -210 -34 -369 -72 -719 -258 -997 -528
-123 -120 -145 -147 -274 -337 -228 -336 -344 -757 -325 -1180 14 -342 87
-589 284 -966 41 -79 206 -289 301 -385 364 -362 866 -579 1405 -606 364 -18
787 92 1112 288 133 80 311 217 395 305 136 141 265 330 358 524 231 479 262
992 91 1510 -146 445 -459 850 -850 1102 -152 98 -402 204 -595 252 -214 54
-494 76 -695 55z m-325 -261 c6 -3 36 -9 68 -12 31 -4 55 -11 52 -16 -3 -4 7
-11 21 -14 19 -5 33 -23 55 -71 28 -60 30 -70 27 -164 -2 -56 1 -102 5 -104 5
-1 -2 -51 -15 -110 -14 -59 -21 -107 -17 -107 11 0 -1 -32 -16 -45 -17 -15
-26 -45 -13 -45 7 0 2 -9 -9 -20 -13 -12 -19 -27 -16 -39 3 -11 -3 -27 -15
-39 -11 -11 -18 -23 -15 -26 4 -3 1 -6 -6 -6 -7 0 -9 -5 -6 -10 3 -6 -1 -13
-9 -16 -9 -3 -13 -10 -10 -15 3 -5 -2 -12 -10 -15 -9 -3 -14 -10 -11 -14 3 -5
1 -11 -5 -15 -6 -4 -8 -11 -5 -16 3 -5 -1 -6 -9 -3 -12 4 -14 0 -11 -17 4 -20
-2 -16 -38 20 -39 40 -57 51 -57 36 -1 -14 -156 -158 -215 -200 -39 -27 -72
-53 -73 -57 -2 -5 -8 -6 -13 -2 -5 3 -12 -2 -15 -10 -3 -9 -10 -13 -15 -10 -5
3 -9 1 -9 -5 0 -6 -7 -8 -15 -5 -8 4 -15 1 -15 -6 0 -6 -4 -8 -10 -5 -5 3 -10
2 -10 -4 0 -6 -7 -8 -15 -5 -8 4 -15 1 -15 -5 0 -6 -7 -8 -15 -5 -8 4 -15 1
-15 -6 0 -7 -7 -10 -15 -6 -8 3 -15 1 -15 -5 0 -6 -9 -8 -20 -4 -12 4 -20 2
-20 -5 0 -7 -8 -9 -20 -5 -12 4 -20 2 -20 -5 0 -8 -9 -10 -25 -6 -15 4 -25 2
-25 -4 0 -7 -13 -9 -35 -4 -22 4 -35 2 -35 -5 0 -6 -28 -10 -76 -10 -87 1 -89
-2 -99 -72 l-7 -46 -61 12 c-70 13 -142 46 -151 70 -3 9 -10 14 -15 11 -15
-10 -39 85 -30 123 4 19 5 40 0 46 -9 13 -7 126 4 185 21 119 91 285 174 410
56 86 193 232 265 285 78 57 133 91 181 114 127 60 172 79 200 85 17 4 41 9
55 11 14 3 48 10 75 16 28 6 79 13 115 15 35 3 66 6 67 8 5 4 38 1 48 -6z
m-639 -1472 c44 -24 210 -114 369 -201 160 -86 295 -161 300 -166 14 -15 -49
-64 -113 -89 -142 -54 -318 3 -468 154 -85 85 -135 166 -160 261 -14 49 -18
85 -10 85 2 0 39 -20 82 -44z m2390 -13 c-3 -27 -24 -86 -47 -132 -125 -254
-435 -397 -623 -287 -47 28 -86 67 -71 73 6 2 172 91 370 198 198 106 364 194
369 194 5 1 6 -20 2 -46z m-375 -1450 c32 -31 59 -59 59 -63 0 -4 -29 -15 -65
-24 -99 -25 -128 -2 -92 69 21 40 23 46 26 65 2 17 11 11 72 -47z"/>
</g>
</svg>
